<svg width="62" height="62" viewBox="0 0 62 62" fill="none" xmlns="http://www.w3.org/2000/svg">
<path fill-rule="evenodd" clip-rule="evenodd" d="M11.4312 36.5161C10.7592 38.1303 10.3838 39.8526 10.323 41.6001C10.4157 42.6778 10.7833 43.7138 11.3906 44.609C12.5332 45.932 13.9074 47.0356 15.4457 47.8659L25.3812 54.4806C26.6038 55.4535 27.9785 56.2181 29.45 56.7436C30.4054 56.971 31.4008 56.971 32.3562 56.7436C33.8376 56.2246 35.2233 55.4653 36.4579 54.4961L46.5 47.8776C48.054 47.0448 49.4438 45.9367 50.6017 44.6071C51.2133 43.707 51.5805 42.6635 51.6673 41.5788C51.6013 39.817 51.216 38.082 50.53 36.4579L41.7473 8.81757C41.5513 7.92241 41.197 7.06944 40.7011 6.29882C40.3399 5.85997 39.8732 5.51998 39.3448 5.3107C38.4619 5.07131 37.5433 4.99127 36.6323 5.07432H25.1972C24.2858 4.99148 23.367 5.07352 22.4847 5.31651C21.955 5.52537 21.4879 5.86698 21.1284 6.30851C20.6347 7.07917 20.2836 7.93233 20.0919 8.82726L11.4312 36.5161ZM37.0837 10.9411C37.4922 11.5905 37.7816 12.3077 37.9382 13.0588L45.4789 37.8278C42.6466 36.3587 39.6065 35.3309 36.4637 34.7801L31.5638 18.1951C31.5337 18.0971 31.4805 18.0078 31.4088 17.9346C31.3371 17.8614 31.2488 17.8065 31.1515 17.7744C31.0541 17.7424 30.9505 17.7341 30.8493 17.7503C30.7482 17.7665 30.6523 17.8068 30.5699 17.8676C30.4592 17.9486 30.3782 18.0636 30.3393 18.1951L25.4956 34.7743C22.338 35.3239 19.2837 36.3558 16.4397 37.8336L24.0114 13.0646C24.1665 12.3121 24.4566 11.5939 24.8678 10.9449C25.1677 10.5769 25.5555 10.2904 25.9954 10.1118C26.7366 9.91149 27.5077 9.84587 28.272 9.91807H33.6834C34.4484 9.8458 35.2201 9.91143 35.9619 10.1118C36.4031 10.2909 36.7918 10.5788 37.0915 10.9488L37.0837 10.9411ZM31.2461 40.8038C33.5778 40.9388 35.8902 40.311 37.8336 39.0154C38.0545 39.7109 38.1328 40.4437 38.0639 41.1701C37.995 41.8965 37.7802 42.6016 37.4325 43.2431C36.7177 44.4581 35.6802 45.4513 34.4352 46.1125C33.1293 46.9418 32.0056 47.6625 32.0056 49.5748C32.0039 50.1882 32.1424 50.7939 32.4105 51.3457C31.5299 50.98 30.7774 50.3615 30.248 49.5683C29.7187 48.7752 29.4363 47.843 29.4364 46.8894V46.7713C29.4364 45.4479 29.4364 43.8185 27.5726 43.8185C27.3127 43.8183 27.0554 43.869 26.815 43.9677C26.3313 44.168 25.9467 44.5519 25.7455 45.0353C25.6456 45.2754 25.5936 45.5327 25.5924 45.7928C24.3149 44.3976 23.6286 42.5611 23.6782 40.6701C23.6691 39.8516 23.7834 39.0365 24.0172 38.2521C24.7922 39.7188 27.7372 40.8096 31.2461 40.8096V40.8038Z" fill="#FF5D01"/>
</svg>
