<svg width="52" height="27" viewBox="0 0 52 27" fill="none" xmlns="http://www.w3.org/2000/svg">
<g clip-path="url(#clip0_25_127)">
<path d="M30.1378 15.6577L30.1476 15.6445H16.8685C16.6792 15.6445 16.5012 15.7462 16.4066 15.9118L13.7834 20.4773L12.9656 21.899C12.8187 21.9859 12.6457 22.086 12.4988 22.1713H8.86519C8.45547 22.1713 8.1992 21.7252 8.40487 21.3694L8.91742 20.4773L11.6924 15.6445L17.8316 4.96401C18.0389 4.60652 18.5515 4.60652 18.7555 4.96401L20.7274 8.39464L23.5056 13.2274L24.1928 14.4228C24.2875 14.5885 24.4621 14.6901 24.6548 14.6901H29.8995L27.9717 11.3317L27.8998 11.2103L26.2822 8.39464L24.7315 5.69212L24.2369 4.83446L23.5056 3.56355V3.56191L21.6137 0.269039C21.519 0.103412 21.3411 0.0017395 21.1518 0.0017395H15.4353C15.246 0.0017395 15.0681 0.103412 14.9734 0.269039L6.13756 15.6445L3.36259 20.4773L2.38809 22.1713L0.0718038 26.2021C-0.132238 26.5579 0.122406 27.004 0.535387 27.004H15.2786C15.4712 27.004 15.6459 26.9023 15.7406 26.7367L18.3637 22.1713L19.1848 20.7446C19.2795 20.5789 19.4574 20.4773 19.6468 20.4773H32.9193L32.9078 20.4707L30.1378 15.6577Z" fill="white"/>
<path d="M47.6314 15.6444H36.6393C36.2263 15.6444 35.9701 15.1967 36.1774 14.8393L41.9607 4.83436L44.2852 0.815019C44.4925 0.459166 44.2346 0.0114788 43.8248 0.00983907L39.9889 0.00163988L39.1939 0L39.1923 0.00163988H22.4902L25.2668 4.83436H35.4722C35.8835 4.83436 36.1414 5.28205 35.9341 5.63954L30.7874 14.5375L34.1777 20.4772H49.2981C49.4874 20.4772 49.6621 20.3755 49.7567 20.2099L51.9278 16.4578C52.1351 16.1003 51.8771 15.6543 51.4691 15.6526L47.6314 15.6444Z" fill="white"/>
</g>
<defs>
<clipPath id="clip0_25_127">
<rect width="52" height="27" fill="white"/>
</clipPath>
</defs>
</svg>
