<svg width="64" height="29" viewBox="0 0 64 29" fill="none" xmlns="http://www.w3.org/2000/svg">
<path d="M16.3199 28.9999H58.6739V17.2799L50.6279 12.6659L49.2399 12.0659L16.3199 12.2919V28.9999Z" fill="white"/>
<path d="M44.024 27.444C44.418 26.094 44.268 24.856 43.612 23.936C43.012 23.092 41.998 22.604 40.78 22.548L17.69 22.248C17.54 22.248 17.41 22.172 17.334 22.06C17.258 21.948 17.24 21.8 17.278 21.648C17.354 21.422 17.578 21.254 17.822 21.236L41.118 20.936C43.878 20.804 46.878 18.572 47.926 15.836L49.258 12.366C49.3166 12.2235 49.3306 12.0666 49.298 11.916C47.798 5.12601 41.738 0.0620117 34.498 0.0620117C27.818 0.0620117 22.158 4.37601 20.13 10.362C18.816 9.38601 17.13 8.86201 15.346 9.03001C12.138 9.35001 9.54601 11.918 9.25001 15.126C9.17228 15.9238 9.22907 16.729 9.41801 17.508C6.89432 17.5763 4.49718 18.6279 2.73778 20.4385C0.978381 22.2491 -0.00404201 24.6754 1.25001e-05 27.2C1.25001e-05 27.668 0.0400125 28.14 0.0940125 28.606C0.134012 28.832 0.320013 29 0.544013 29H43.16C43.2826 28.9977 43.4013 28.9565 43.499 28.8825C43.5968 28.8085 43.6685 28.7054 43.704 28.588L44.024 27.444Z" fill="#F38020"/>
<path d="M51.376 12.606L50.736 12.626C50.586 12.626 50.456 12.738 50.396 12.886L49.496 16.018C49.102 17.368 49.252 18.606 49.908 19.526C50.508 20.37 51.522 20.858 52.74 20.914L57.654 21.214C57.804 21.214 57.934 21.29 58.01 21.402C58.086 21.514 58.104 21.682 58.066 21.814C57.99 22.04 57.766 22.208 57.522 22.226L52.402 22.526C49.626 22.658 46.642 24.89 45.594 27.626L45.218 28.582C45.142 28.77 45.274 28.958 45.478 28.958H63.072C63.1739 28.9594 63.2733 28.927 63.3548 28.8658C63.4362 28.8046 63.495 28.7182 63.522 28.62C63.8338 27.5106 63.9946 26.3643 64 25.212C63.9905 21.8686 62.6568 18.6653 60.2908 16.303C57.9249 13.9408 54.7194 12.6102 51.376 12.606Z" fill="#FAAE40"/>
</svg>
