<svg width="56" height="25" viewBox="0 0 56 25" fill="none" xmlns="http://www.w3.org/2000/svg">
<g clip-path="url(#clip0_25_86)">
<path d="M14.2799 24.9999H51.3397V14.8965L44.2994 10.9189L43.0849 10.4016L14.2799 10.5965V24.9999Z" fill="white"/>
<path d="M38.521 23.6586C38.8657 22.4948 38.7345 21.4276 38.1605 20.6345C37.6355 19.9069 36.7482 19.4862 35.6825 19.4379L15.4788 19.1793C15.3475 19.1793 15.2337 19.1138 15.1672 19.0172C15.1007 18.9207 15.085 18.7931 15.1182 18.6621C15.1847 18.4673 15.3808 18.3224 15.5943 18.3069L35.9783 18.0483C38.3933 17.9345 41.0182 16.0104 41.9352 13.6517L43.1007 10.6604C43.152 10.5375 43.1643 10.4022 43.1358 10.2724C41.8233 4.41898 36.5208 0.0534668 30.1858 0.0534668C24.3408 0.0534668 19.3882 3.77243 17.6137 8.93277C16.464 8.0914 14.9887 7.63967 13.4277 7.7845C10.6207 8.06036 8.35276 10.2741 8.09376 13.0397C8.02574 13.7274 8.07544 14.4216 8.24076 15.0931C6.03253 15.152 3.93503 16.0585 2.39556 17.6194C0.856083 19.1803 -0.00353676 21.2719 1.09376e-05 23.4483C1.09376e-05 23.8517 0.0350109 24.2586 0.0822609 24.6604C0.11726 24.8552 0.280011 25 0.476011 25H37.765C37.8723 24.998 37.9761 24.9625 38.0616 24.8987C38.1472 24.8349 38.2099 24.746 38.241 24.6448L38.521 23.6586Z" fill="#F38020"/>
<path d="M44.954 10.8672L44.394 10.8845C44.2628 10.8845 44.149 10.981 44.0965 11.1086L43.309 13.8086C42.9643 14.9724 43.0955 16.0397 43.6695 16.8328C44.1945 17.5604 45.0818 17.981 46.1475 18.0293L50.4473 18.2879C50.5785 18.2879 50.6923 18.3535 50.7588 18.45C50.8253 18.5466 50.841 18.6914 50.8078 18.8052C50.7413 19 50.5453 19.1448 50.3318 19.1604L45.8518 19.419C43.4228 19.5328 40.8118 21.4569 39.8948 23.8155L39.5658 24.6397C39.4993 24.8017 39.6148 24.9638 39.7933 24.9638H55.188C55.2772 24.965 55.3642 24.9371 55.4355 24.8843C55.5067 24.8316 55.5582 24.7571 55.5818 24.6724C55.8546 23.716 55.9953 22.7279 56 21.7345C55.9917 18.8522 54.8247 16.0908 52.7545 14.0543C50.6843 12.0179 47.8795 10.8709 44.954 10.8672Z" fill="#FAAE40"/>
</g>
<defs>
<clipPath id="clip0_25_86">
<rect width="56" height="25" fill="white"/>
</clipPath>
</defs>
</svg>
