<svg width="24" height="48" viewBox="0 0 24 48" fill="none" xmlns="http://www.w3.org/2000/svg">
<g clip-path="url(#clip0_25_8)">
<path d="M0.766395 25.5648H5.97432V47.2259C5.97432 47.6535 6.31729 48 6.74062 48H15.5709C15.9942 48 16.3372 47.6535 16.3372 47.2259V25.6669H22.3242C22.7135 25.6669 23.0411 25.3718 23.0855 24.9811L23.9948 17.0066C24.0198 16.7873 23.951 16.5675 23.8057 16.4029C23.6603 16.2382 23.4521 16.1438 23.2337 16.1438H16.3375V11.145C16.3375 9.63817 17.1406 8.874 18.7248 8.874C18.9506 8.874 23.2337 8.874 23.2337 8.874C23.657 8.874 24 8.52735 24 8.09985V0.77991C24 0.352219 23.657 0.00571875 23.2337 0.00571875H17.0197C16.9759 0.0035625 16.8785 0 16.7351 0C15.6569 0 11.9092 0.213844 8.94877 2.96531C5.66865 6.01444 6.12465 9.66517 6.23359 10.2982V16.1437H0.766297C0.34297 16.1437 0 16.4902 0 16.9178V24.7905C9.27953e-05 25.2181 0.343062 25.5648 0.766395 25.5648Z" fill="#0866FF"/>
</g>
<defs>
<clipPath id="clip0_25_8">
<rect width="24" height="48" fill="white"/>
</clipPath>
</defs>
</svg>
