<svg width="32" height="64" viewBox="0 0 32 64" fill="none" xmlns="http://www.w3.org/2000/svg">
<path d="M1.02186 34.0864H7.96576V62.9678C7.96576 63.538 8.42305 64 8.98749 64H20.7612C21.3256 64 21.7829 63.538 21.7829 62.9678V34.2225H29.7656C30.2847 34.2225 30.7214 33.829 30.7807 33.3081L31.9931 22.6755C32.0264 22.383 31.9347 22.09 31.7409 21.8705C31.547 21.6509 31.2695 21.5251 30.9783 21.5251H21.7834V14.86C21.7834 12.8509 22.8541 11.832 24.9664 11.832C25.2674 11.832 30.9783 11.832 30.9783 11.832C31.5427 11.832 32 11.3698 32 10.7998V1.03988C32 0.469625 31.5427 0.007625 30.9783 0.007625H22.6929C22.6345 0.00475 22.5047 0 22.3135 0C20.8759 0 15.8789 0.285125 11.9317 3.95375C7.5582 8.01925 8.1662 12.8869 8.31145 13.7309V21.5249H1.02173C0.457294 21.5249 0 21.9869 0 22.5571V33.054C0.000123727 33.6241 0.457416 34.0864 1.02186 34.0864Z" fill="#0866FF"/>
</svg>
