<svg width="34" height="38" viewBox="0 0 34 38" fill="none" xmlns="http://www.w3.org/2000/svg">
<path d="M4.39675 4.13829C4.49409 2.4163 4.90543 1.66748 6.08503 1.06615C7.35426 0.418939 9.3561 0.720133 11.7117 1.91295C12.7262 2.42696 12.8295 2.43743 14.6076 2.20946C16.9711 1.90633 20.0137 1.9074 22.1951 2.21223C23.8447 2.44276 23.9531 2.43124 24.9701 1.91616C28.3137 0.222982 30.9535 0.333767 31.9093 2.20732C32.3864 3.1425 32.475 5.56911 32.1051 7.57053C31.9 8.68011 31.9217 8.81864 32.4159 9.54676C35.8925 14.6701 33.3875 22.9746 27.43 26.0738C26.9742 26.311 26.59 26.4578 26.2769 26.5773C25.3155 26.9444 25.0236 27.0559 25.377 28.7456C25.5472 29.5584 25.7522 31.5792 25.8327 33.2365C25.9783 36.2322 25.9762 36.2531 25.4507 36.8642C24.7356 37.6956 23.7048 37.7096 23.0064 36.8975C22.5509 36.3679 22.5064 36.1178 22.5064 34.0745C22.5064 31.0549 22.1754 29.0479 21.3934 27.328C20.4634 25.2814 21.1528 24.5183 23.2795 24.0609C26.2356 23.425 28.5444 21.6007 29.8313 18.884C31.0548 16.3015 31.2392 12.7328 29.0272 10.5624C28.3981 9.81487 28.3543 9.13777 28.8035 7.09601C28.9713 6.3329 29.1121 5.3484 29.1163 4.90803C29.1226 4.21257 29.0593 4.10755 28.6321 4.10755C28.3618 4.10755 27.3291 4.50075 26.3374 4.98125L24.7547 5.74839C24.6107 5.81811 24.4497 5.84493 24.2909 5.82671C20.2663 5.36475 16.4421 5.35761 12.3978 5.82851C12.2384 5.84707 12.0767 5.82025 11.9323 5.75018L10.3504 4.98253C9.35866 4.50117 8.32593 4.10755 8.0557 4.10755C7.43089 4.10755 7.4215 4.56884 7.99101 7.30947C8.33891 8.98325 8.57301 9.35621 7.5673 10.6945C6.05984 12.7006 5.68329 15.1917 6.49167 17.8091C7.51052 21.1073 10.0055 23.3355 13.5131 24.0789C15.6275 24.5271 16.1802 25.1119 15.3728 27.5365C14.7372 29.4446 14.3353 29.9364 13.4116 29.9364C12.1689 29.9364 11.3904 28.8598 11.8188 27.7333C12.0075 27.2368 11.9514 27.1838 10.7872 26.7592C7.23323 25.4634 4.515 22.5592 3.27223 18.7297C2.31166 15.77 2.73432 11.9177 4.2753 9.58924C4.79998 8.79644 4.8081 8.7292 4.56325 7.21149C4.42472 6.35232 4.34979 4.96951 4.39675 4.13829Z" fill="#0F0F0F"/>
<path d="M3.1557 25.7895C2.64357 25.0213 1.60567 24.8137 0.837473 25.3259C0.0692955 25.8379 -0.138295 26.8759 0.373828 27.644C0.751916 28.2113 1.20423 28.6772 1.58833 29.0611C1.65914 29.132 1.72795 29.2004 1.79514 29.2671C2.11689 29.5867 2.40098 29.8689 2.6863 30.2039C3.31738 30.9446 3.94696 31.9423 4.30477 33.7314C4.46415 34.5283 5.03696 34.9575 5.35434 35.1451C5.69855 35.3484 6.07463 35.4683 6.38411 35.5463C7.01719 35.706 7.78572 35.7889 8.51508 35.8372C9.31576 35.8904 10.1833 35.9076 10.9591 35.9123C10.9597 36.8349 11.7079 37.5828 12.6308 37.5828C13.554 37.5828 14.3025 36.8344 14.3025 35.9111V34.2394C14.3025 33.3161 13.554 32.5677 12.6308 32.5677C12.4732 32.5677 12.3027 32.5682 12.1221 32.5689C11.141 32.5719 9.86229 32.5757 8.73606 32.5012C8.19298 32.4652 7.74654 32.4142 7.41915 32.3519C6.915 30.3728 6.10054 29.056 5.23144 28.0357C4.84725 27.5849 4.44942 27.1904 4.12583 26.8694C4.06525 26.8094 4.00727 26.7519 3.95246 26.697C3.57909 26.3237 3.33485 26.0583 3.1557 25.7895Z" fill="#0F0F0F"/>
</svg>
