<svg width="46" height="36" viewBox="0 0 46 36" fill="none" xmlns="http://www.w3.org/2000/svg">
<g clip-path="url(#clip0_25_99)">
<path d="M46 9.22495L40.5238 12.3188L35.0476 17.6625V36H42.7143C44.5291 36 46 34.4891 46 32.625V9.22495Z" fill="#4CAF50"/>
<path d="M0 9.22495L3.95819 11.1487L10.9524 17.6625V36H3.28571C1.4709 36 0 34.4891 0 32.625V9.22495Z" fill="#1E88E5"/>
<path d="M35.0477 3.59995L23 12.8813L10.9524 3.59995L9.85718 10.1249L10.9524 17.6625L23 26.9438L35.0477 17.6625L36.1429 10.1249L35.0477 3.59995Z" fill="#E53935"/>
<path d="M0 4.83525V9.225L10.9524 17.6625V3.6L7.53086 0.966375C6.716 0.338625 5.7259 0 4.70733 0C2.10724 0 0 2.1645 0 4.83525Z" fill="#C62828"/>
<path d="M46 4.83525V9.225L35.0476 17.6625V3.6L38.4691 0.966375C39.284 0.338625 40.2741 0 41.2927 0C43.8927 0 46 2.1645 46 4.83525Z" fill="#FBC02D"/>
</g>
<defs>
<clipPath id="clip0_25_99">
<rect width="46" height="36" fill="white"/>
</clipPath>
</defs>
</svg>
