<svg width="59" height="59" viewBox="0 0 59 59" fill="none" xmlns="http://www.w3.org/2000/svg">
<path d="M53.7395 12.3434L45.5651 19.0877V10.6601C45.5651 8.57862 43.8895 6.8924 41.8209 6.8924H14.9889L2.19653 19.7662V39.2338V48.3399C2.19653 50.4214 3.87213 52.1076 5.94067 52.1076H14.9889H41.8209C43.8895 52.1076 45.5651 50.4214 45.5651 48.3399V40.2262L53.7767 47.0024C55.0057 47.9694 56.8034 47.0873 56.8034 45.5144V13.8001C56.8034 12.2083 54.9655 11.3351 53.7395 12.3434ZM33.0848 39.2338H14.9889V19.7662H33.0848V29.5V39.2338Z" fill="#F5BB41"/>
<path d="M2.19653 39.2338V48.3399C2.19653 50.4214 3.87213 52.1076 5.94067 52.1076H14.9889V39.2338H2.19653Z" fill="#2167D1"/>
<path d="M14.9889 19.7662H2.19653V39.2338H14.9889V19.7662Z" fill="#3D84F3"/>
<path d="M53.7396 12.3434L45.5652 19.0877V40.2262L53.7768 47.0024C55.0058 47.9694 56.8035 47.0873 56.8035 45.5144V13.8001C56.8035 12.2083 54.9657 11.3351 53.7396 12.3434Z" fill="#4CA853"/>
<path d="M33.0849 29.5V39.2338H14.989V52.1076H41.821C43.8896 52.1076 45.5652 50.4214 45.5652 48.3399V40.2262L33.0849 29.5Z" fill="#4CA853"/>
<path d="M45.565 40.2262V19.0942L33.0847 29.5L45.565 40.2262Z" fill="#398039"/>
<path d="M2.19653 19.7662H14.9889V6.8924L2.19653 19.7662Z" fill="#D74F3F"/>
<path d="M41.821 6.8924H14.989V19.7662H33.0849V29.5L45.5652 19.0942V19.0877V10.6601C45.5652 8.57862 43.8896 6.8924 41.821 6.8924Z" fill="#F5BB41"/>
</svg>
