<svg width="40" height="36" viewBox="0 0 40 36" fill="none" xmlns="http://www.w3.org/2000/svg">
<path d="M34.59 33C34.055 33.93 34.292 34.68 33.395 35.197C32.498 35.715 31.465 36 30.39 36H9.61003C8.53603 36 7.50403 35.715 6.60603 35.198C5.70803 34.681 5.94503 33.93 5.41003 33L13.08 24H26.92L34.59 33Z" fill="#1E88E5"/>
<path d="M23.463 0.998987C24.536 0.996987 25.567 0.282987 26.464 0.800987C27.361 1.31999 28.124 2.07099 28.661 3.00199L39.051 20.998C39.588 21.928 39.858 22.965 39.859 24C39.86 25.037 38.592 26.073 38.053 27.001L26.926 23.996L20.002 12.003L23.463 0.998987Z" fill="#FBC02D"/>
<path d="M39.86 24C39.86 25.04 39.59 26.07 39.05 27L35.38 33.35C34.85 34.13 34.17 34.75 33.39 35.2L26.92 24H39.86Z" fill="#E53935"/>
<path d="M1.94699 27.0011C1.40899 26.0731 0.140991 25.0371 0.140991 24.0011C0.141991 22.9651 0.410991 21.9281 0.948991 20.9971L11.339 3.0011C11.876 2.0711 12.639 1.3191 13.535 0.801104C14.432 0.282104 15.464 0.996104 16.537 0.998104L19.996 12.0071L13.074 23.9961L1.94699 27.0011Z" fill="#4CAF50"/>
<path d="M13.08 24L6.61001 35.2C5.83001 34.75 5.15001 34.13 4.62001 33.35L0.950015 27C0.410015 26.07 0.140015 25.04 0.140015 24H13.08Z" fill="#1565C0"/>
<path d="M26.46 0.8L20 12L13.53 0.8C14.31 0.35 15.19 0.0700002 16.13 0.0100002L23.46 0C24.54 0 25.57 0.28 26.46 0.8Z" fill="#2E7D32"/>
</svg>
