<svg width="62" height="62" viewBox="0 0 62 62" fill="none" xmlns="http://www.w3.org/2000/svg">
<path d="M56.331 25.9405H54.2501V25.8333H31.0001V36.1667H45.5998C43.4698 42.182 37.7465 46.5 31.0001 46.5C22.4402 46.5 15.5001 39.5599 15.5001 31C15.5001 22.4401 22.4402 15.5 31.0001 15.5C34.9513 15.5 38.546 16.9906 41.283 19.4254L48.59 12.1184C43.9762 7.81845 37.8046 5.16666 31.0001 5.16666C16.7336 5.16666 5.16675 16.7335 5.16675 31C5.16675 45.2665 16.7336 56.8333 31.0001 56.8333C45.2665 56.8333 56.8334 45.2665 56.8334 31C56.8334 29.2679 56.6552 27.5771 56.331 25.9405Z" fill="#FBC02D"/>
<path d="M8.14526 18.9759L16.6328 25.2004C18.9294 19.5145 24.4913 15.5 31 15.5C34.9512 15.5 38.5459 16.9906 41.283 19.4254L48.5899 12.1184C43.9761 7.81845 37.8045 5.16666 31 5.16666C21.0774 5.16666 12.4723 10.7686 8.14526 18.9759Z" fill="#E53935"/>
<path d="M31.0001 56.8333C37.6728 56.8333 43.7359 54.2797 48.32 50.127L40.3246 43.3613C37.731 45.3259 34.507 46.5 31.0001 46.5C24.2808 46.5 18.5755 42.2155 16.4262 36.2364L8.00195 42.727C12.2774 51.0932 20.96 56.8333 31.0001 56.8333Z" fill="#4CAF50"/>
<path d="M56.3309 25.9406L56.3102 25.8333H54.25H31V36.1667H45.5997C44.5767 39.0561 42.718 41.5478 40.3207 43.3626L40.3245 43.36L48.32 50.1257C47.7542 50.6398 56.8333 43.9167 56.8333 31C56.8333 29.2679 56.6551 27.5771 56.3309 25.9406Z" fill="#1565C0"/>
</svg>
