<svg width="52" height="46" viewBox="0 0 52 46" fill="none" xmlns="http://www.w3.org/2000/svg">
<g clip-path="url(#clip0_25_15)">
<path d="M44.9669 42.1667C44.2714 43.355 44.5795 44.3133 43.4134 44.9739C42.2473 45.6358 40.9044 46 39.5069 46H12.493C11.0968 46 9.75516 45.6358 8.58776 44.9752C7.42036 44.3146 7.72846 43.355 7.03296 42.1667L17.0039 30.6667H34.9959L44.9669 42.1667Z" fill="#1E88E5"/>
<path d="M30.502 1.2765C31.8969 1.27394 33.2372 0.361608 34.4033 1.0235C35.5694 1.68667 36.5613 2.64628 37.2594 3.83589L50.7664 26.8308C51.4645 28.0191 51.8155 29.3442 51.8168 30.6667C51.8181 31.9917 50.1697 33.3155 49.469 34.5013L35.0039 30.6616L26.0027 15.3372L30.502 1.2765Z" fill="#FBC02D"/>
<path d="M51.8181 30.6667C51.8181 31.9955 51.4671 33.3117 50.7651 34.5L45.9941 42.6139C45.3051 43.6105 44.4211 44.4028 43.4071 44.9778L34.9961 30.6667H51.8181Z" fill="#E53935"/>
<path d="M2.53115 34.5014C1.83175 33.3156 0.18335 31.9918 0.18335 30.6681C0.18465 29.3443 0.53435 28.0192 1.23375 26.8296L14.7408 3.83474C15.4389 2.6464 16.4308 1.68551 17.5956 1.02363C18.7617 0.360462 20.1033 1.2728 21.4982 1.27535L25.9949 15.3424L16.9963 30.6617L2.53115 34.5014Z" fill="#4CAF50"/>
<path d="M17.0041 30.6667L8.59312 44.9778C7.57912 44.4028 6.69512 43.6105 6.00612 42.6139L1.23513 34.5C0.533129 33.3117 0.182129 31.9955 0.182129 30.6667H17.0041Z" fill="#1565C0"/>
<path d="M34.3981 1.02222L26.0001 15.3333L17.5891 1.02222C18.6031 0.447222 19.7471 0.0894447 20.9691 0.012778L30.4981 0C31.9021 0 33.2411 0.357778 34.3981 1.02222Z" fill="#2E7D32"/>
</g>
<defs>
<clipPath id="clip0_25_15">
<rect width="52" height="46" fill="white"/>
</clipPath>
</defs>
</svg>
