<svg width="49" height="49" viewBox="0 0 49 49" fill="none" xmlns="http://www.w3.org/2000/svg">
<g clip-path="url(#clip0_25_36)">
<path fill-rule="evenodd" clip-rule="evenodd" d="M14.3807 0.300686C10.3924 0.480638 6.93549 1.45573 4.14416 4.23527C1.34308 7.0294 0.380097 10.4999 0.199696 14.4468C0.0875542 16.9102 -0.568189 35.5207 1.33333 40.4013C2.61564 43.694 5.14118 46.2256 8.46396 47.5121C10.0144 48.1151 11.7844 48.5234 14.3807 48.6425C36.0896 49.625 44.1369 49.0902 47.5305 40.4013C48.1325 38.8547 48.547 37.0864 48.6616 34.4965C49.6538 12.7319 48.5007 8.01429 44.7172 4.23527C41.7162 1.24172 38.1862 -0.796053 14.3807 0.300686ZM14.5805 44.2653C12.2036 44.1583 10.914 43.7623 10.0534 43.4291C7.88862 42.5877 6.26262 40.9684 5.42643 38.8163C3.97836 35.1077 4.45863 17.4942 4.58783 14.6441C4.7146 11.8524 5.28017 9.30103 7.24995 7.33125C9.68783 4.89944 12.8375 3.70763 34.2832 4.6755C37.0818 4.80194 39.6392 5.36636 41.6138 7.33125C44.0517 9.76306 45.2608 12.9369 44.2759 34.3003C44.1687 36.6713 43.7713 37.9578 43.4373 38.8163C41.2311 44.4702 36.1554 45.255 14.5805 44.2653ZM34.5197 11.4895C34.5197 13.0994 35.8288 14.4085 37.4451 14.4085C39.0614 14.4085 40.373 13.0994 40.373 11.4895C40.373 9.87968 39.0614 8.57183 37.4451 8.57183C35.8288 8.57183 34.5197 9.87968 34.5197 11.4895ZM11.9136 24.4704C11.9136 31.367 17.5182 36.9584 24.4319 36.9584C31.3456 36.9584 36.9502 31.367 36.9502 24.4704C36.9502 17.5738 31.3456 11.986 24.4319 11.986C17.5182 11.986 11.9136 17.5738 11.9136 24.4704ZM16.3065 24.4704C16.3065 19.9959 19.9438 16.3656 24.4319 16.3656C28.92 16.3656 32.5573 19.9959 32.5573 24.4704C32.5573 28.9474 28.92 32.5788 24.4319 32.5788C19.9438 32.5788 16.3065 28.9474 16.3065 24.4704Z" fill="white"/>
</g>
<defs>
<clipPath id="clip0_25_36">
<rect width="49" height="49" fill="white"/>
</clipPath>
</defs>
</svg>
