<svg width="65" height="65" viewBox="0 0 65 65" fill="none" xmlns="http://www.w3.org/2000/svg">
<path fill-rule="evenodd" clip-rule="evenodd" d="M19.0764 0.398868C13.7858 0.63758 9.20014 1.93107 5.49736 5.61821C1.78163 9.32472 0.50421 13.9285 0.264902 19.1641C0.116143 22.4319 -0.753721 47.1193 1.7687 53.5936C3.46972 57.9614 6.81993 61.3197 11.2277 63.0262C13.2844 63.8262 15.6323 64.3678 19.0764 64.5258C47.874 65.8291 58.549 65.1196 63.0506 53.5936C63.8493 51.542 64.3991 49.1962 64.5511 45.7606C65.8673 16.8892 64.3377 10.6312 59.3187 5.61821C55.3378 1.64718 50.6552 -1.05599 19.0764 0.398868ZM19.3415 58.7193C16.1885 58.5774 14.4778 58.052 13.3362 57.6101C10.4645 56.4939 8.30755 54.3459 7.19833 51.491C5.27741 46.5715 5.91451 23.2066 6.0859 19.4259C6.25406 15.7226 7.00431 12.3381 9.61728 9.72513C12.8512 6.49926 17.0293 4.91828 45.4777 6.20219C49.1902 6.36992 52.5826 7.11864 55.202 9.72513C58.4359 12.951 60.0399 17.1612 58.7334 45.5004C58.5911 48.6456 58.064 50.3522 57.6209 51.491C54.6943 58.9911 47.9613 60.0322 19.3415 58.7193ZM45.7914 15.2412C45.7914 17.3768 47.528 19.1133 49.6721 19.1133C51.8162 19.1133 53.556 17.3768 53.556 15.2412C53.556 13.1057 51.8162 11.3708 49.6721 11.3708C47.528 11.3708 45.7914 13.1057 45.7914 15.2412ZM15.8037 32.4608C15.8037 41.6093 23.2384 49.0265 32.4096 49.0265C41.5809 49.0265 49.0156 41.6093 49.0156 32.4608C49.0156 23.3122 41.5809 15.8998 32.4096 15.8998C23.2384 15.8998 15.8037 23.3122 15.8037 32.4608ZM21.6311 32.4608C21.6311 26.5252 26.4561 21.7095 32.4096 21.7095C38.3632 21.7095 43.1882 26.5252 43.1882 32.4608C43.1882 38.3996 38.3632 43.2168 32.4096 43.2168C26.4561 43.2168 21.6311 38.3996 21.6311 32.4608Z" fill="white"/>
</svg>
