<svg width="64" height="64" viewBox="0 0 64 64" fill="none" xmlns="http://www.w3.org/2000/svg">
<rect x="4" y="5" width="56" height="53" fill="white"/>
<path d="M54.5333 54.5332H45.0507V39.6799C45.0507 36.1386 44.9867 31.5786 40.1173 31.5786C35.1787 31.5786 34.4213 35.4399 34.4213 39.4186V54.5332H24.9387V23.9893H34.0427V28.1653H34.1707C36.0267 24.9973 39.4827 23.0987 43.152 23.232C52.7627 23.232 54.5387 29.552 54.5387 37.7813L54.5333 54.5279V54.5332ZM14.24 19.8133C12.7833 19.8063 11.3882 19.2249 10.3577 18.1954C9.32717 17.1659 8.74441 15.7714 8.736 14.3147C8.736 11.296 11.2213 8.81071 14.24 8.81071C17.2587 8.81071 19.7387 11.296 19.744 14.3147C19.744 17.3333 17.2587 19.8133 14.24 19.8133ZM18.9813 54.5332H9.488V23.9893H18.9813V54.5332ZM59.2533 7.92703e-05H4.72C3.48347 -0.00710272 2.29407 0.473996 1.41026 1.33883C0.526448 2.20366 0.0196515 3.38234 0 4.61873V59.3812C0.0196515 60.6176 0.526448 61.7963 1.41026 62.6611C2.29407 63.5259 3.48347 64.007 4.72 63.9998H59.2587C60.4981 64.0099 61.6913 63.5304 62.5791 62.6655C63.4669 61.8007 63.9776 60.6204 64 59.3812V4.6134C63.9776 3.37514 63.4666 2.19596 62.5785 1.33281C61.6903 0.469671 60.4971 -0.00745732 59.2587 0.0054122L59.2533 7.92703e-05Z" fill="#0A66C2"/>
</svg>
