<svg width="32" height="32" viewBox="0 0 32 32" fill="none" xmlns="http://www.w3.org/2000/svg">
<path d="M27.2667 27.2666H22.5253V19.84C22.5253 18.0693 22.4933 15.7893 20.0587 15.7893C17.5893 15.7893 17.2107 17.72 17.2107 19.7093V27.2666H12.4693V11.9947H17.0213V14.0827H17.0853C18.0133 12.4987 19.7413 11.5493 21.576 11.616C26.3813 11.616 27.2693 14.776 27.2693 18.8906L27.2667 27.2639V27.2666ZM7.12 9.90667C6.39166 9.90317 5.69412 9.61247 5.17885 9.0977C4.66358 8.58294 4.37221 7.88568 4.368 7.15735C4.368 5.64802 5.61067 4.40536 7.12 4.40536C8.62933 4.40536 9.86933 5.64802 9.872 7.15735C9.872 8.66667 8.62933 9.90667 7.12 9.90667ZM9.49067 27.2666H4.744V11.9947H9.49067V27.2666ZM29.6267 3.96351e-05H2.36C1.74174 -0.00355136 1.14703 0.236998 0.705128 0.669414C0.263224 1.10183 0.00982577 1.69117 0 2.30936V29.6906C0.00982577 30.3088 0.263224 30.8981 0.705128 31.3305C1.14703 31.763 1.74174 32.0035 2.36 31.9999H29.6293C30.249 32.0049 30.8457 31.7652 31.2896 31.3328C31.7335 30.9003 31.9888 30.3102 32 29.6906V2.3067C31.9888 1.68757 31.7333 1.09798 31.2892 0.666407C30.8452 0.234835 30.2485 -0.00372866 29.6293 0.0027061L29.6267 3.96351e-05Z" fill="#0A66C2"/>
</svg>
