<?xml version="1.0" encoding="UTF-8"?>
<svg version="1.1" xmlns="http://www.w3.org/2000/svg" width="1200" height="1200">
<path d="M0 0 C1.41281847 -0.00165188 2.82563649 -0.00373918 4.23845375 -0.0062201 C8.11938672 -0.0117676 12.00029755 -0.01111786 15.88123322 -0.00944251 C20.10418256 -0.00870987 24.32712574 -0.013738 28.55007243 -0.01801753 C36.92527409 -0.02558985 45.30046937 -0.0277902 53.6756741 -0.02834659 C63.70804967 -0.02926099 73.74041935 -0.03593086 83.77279239 -0.04269341 C108.02102973 -0.05874845 132.26926644 -0.06465627 156.51750815 -0.06944216 C167.99130534 -0.07177875 179.46510203 -0.07538149 190.93889883 -0.07913754 C230.22376115 -0.09197302 269.50862318 -0.10269188 308.79348755 -0.10614014 C311.25929361 -0.10636177 313.72509967 -0.10658355 316.19090573 -0.10680549 C318.6626325 -0.10702613 321.13435926 -0.10724661 323.60608602 -0.10746694 C328.56470569 -0.10790949 333.52332536 -0.1083566 338.48194504 -0.10880661 C340.32611726 -0.1089707 340.32611726 -0.1089707 342.20754549 -0.1091381 C382.06311565 -0.11276789 421.91866762 -0.12868501 461.77423081 -0.15199697 C503.92289975 -0.17660507 546.0715583 -0.19031344 588.22023463 -0.19150805 C592.84914573 -0.19167951 597.47805683 -0.19189493 602.10696793 -0.19214249 C603.24671584 -0.19219826 604.38646375 -0.19225402 605.56074947 -0.19231148 C623.88591632 -0.19346112 642.21106447 -0.20447575 660.536225 -0.21902954 C678.96402941 -0.2334115 697.39180989 -0.23662194 715.81961837 -0.22858956 C726.75979072 -0.22414122 737.69988573 -0.22796203 748.64004788 -0.24382807 C755.95894306 -0.25360848 763.2777843 -0.25237071 770.59667903 -0.24239184 C774.7595588 -0.23702181 778.92229053 -0.23621801 783.08515778 -0.24890056 C803.93690569 -0.3084724 824.3062913 0.2604895 844.55128098 5.81892776 C845.49938644 6.07529007 846.44749191 6.33165237 847.42432785 6.59578323 C882.85539774 16.48940923 912.45956563 35.07596008 939.05128098 60.13142776 C939.83374191 60.85974808 940.61620285 61.58806839 941.42237473 62.33845901 C974.44083555 94.06207824 997.56356468 144.10084809 999.14537666 189.85304336 C999.1827224 192.96681841 999.18969556 196.07923936 999.18550205 199.19323826 C999.18785428 200.38793438 999.19020651 201.58263049 999.19263002 202.81352952 C999.19813029 206.12234958 999.19919448 209.43111642 999.19835261 212.73993731 C999.19852281 216.34268115 999.20443674 219.94541644 999.20959347 223.54815596 C999.21890114 230.6905862 999.22283842 237.83301023 999.22511244 244.97544577 C999.2280793 253.53229579 999.23677954 262.08913762 999.24552672 270.64598333 C999.26635234 291.3269691 999.27683795 312.00795629 999.28565633 332.6889501 C999.28986552 342.4761913 999.29508714 352.26343188 999.30034086 362.05067255 C999.31822941 395.56582152 999.33322459 429.08097067 999.34066105 462.5961237 C999.3411358 464.69947582 999.34161169 466.80282794 999.34208871 468.90618007 C999.34244327 470.47075805 999.34244327 470.47075805 999.342805 472.06694366 C999.34400617 477.35137782 999.34522163 482.63581197 999.34644699 487.92024612 C999.34668714 488.96894907 999.34692729 490.01765201 999.34717472 491.09813382 C999.3550659 525.09198315 999.37849485 559.08579758 999.41100293 593.07963166 C999.44532448 629.03557486 999.46501433 664.99149764 999.46830529 700.94745749 C999.46872282 704.8969766 999.46920238 708.84649569 999.46972847 712.79601479 C999.46985166 713.76846891 999.46997485 714.74092304 999.47010178 715.74284547 C999.47243086 731.37170377 999.48807446 747.00052141 999.50857032 762.62936524 C999.52885702 778.34849676 999.53429216 794.06757962 999.52479968 809.7867218 C999.51959586 819.11634309 999.52540918 828.445802 999.54733435 837.77539982 C999.56089484 844.01946718 999.55971939 850.26342342 999.5469324 856.50749203 C999.54007049 860.05734772 999.53924515 863.60689417 999.55649249 867.15672157 C999.70604107 904.91392709 990.73978796 936.3561751 964.10987473 964.12361526 C940.11718483 988.21833492 907.72784892 1000.37749465 874.05128098 1000.63142776 C838.73689405 1000.38678588 808.93997733 987.02012412 784.05128098 962.13142776 C780.87828195 958.59644668 777.95450996 954.88784614 775.05128098 951.13142776 C773.99192017 949.77554082 772.93198359 948.42010362 771.87159348 947.06502151 C768.86508679 943.21573999 765.87194042 939.3562594 762.88184738 935.49422073 C759.94399838 931.70220918 756.99732593 927.91707278 754.05128098 924.13142776 C752.8845692 922.63146285 751.7179026 921.13146279 750.55128098 919.63142776 C749.97378098 918.88892776 749.39628098 918.14642776 748.80128098 917.38142776 C714.38461431 873.13142776 679.96794764 828.88142776 645.55128098 784.63142776 C644.97345871 783.88852493 644.39563644 783.1456221 643.80030441 782.38020706 C642.63684786 780.88431115 641.4734362 779.38838031 640.31007004 777.89241409 C637.344661 774.07933 634.37840836 770.26690713 631.41065598 766.45564651 C625.47144534 758.82683285 619.54892131 751.18636134 613.66065598 743.51814651 C608.75733471 737.14421135 603.80643237 730.80696043 598.8657341 724.46199417 C595.9261476 720.6862551 592.98880382 716.90877241 590.05128098 713.13142776 C588.88462558 711.631419 587.7179589 710.13141901 586.55128098 708.63142776 C579.55128097 699.63142775 579.55128097 699.63142775 577.79883957 697.37825394 C576.64035606 695.88879826 575.48182792 694.39937728 574.32325363 692.90999222 C571.28100463 688.99895782 568.23969398 685.0871984 565.19971848 681.17439651 C564.56807785 680.36164261 563.93643723 679.5488887 563.28565598 678.71150589 C562.07963918 677.15964604 560.8738935 675.60757545 559.66846848 674.05525589 C559.12190598 673.3520723 558.57534348 672.6488887 558.01221848 671.92439651 C557.53574875 671.31104446 557.05927902 670.69769241 556.56837082 670.06575394 C554.74536612 667.74137895 552.8977371 665.43719831 551.05128098 663.13142776 C551.05068389 663.90522325 551.0500868 664.67901874 551.04947162 665.47626257 C551.01351314 711.42198362 550.95677544 757.36763923 550.87336002 803.31329986 C550.86334356 808.84024067 550.85349926 814.36718177 550.84376144 819.89412308 C550.84182007 820.99435509 550.8398787 822.09458711 550.8378785 823.22815949 C550.80692725 841.00135721 550.78989709 858.77454205 550.77808675 876.54776162 C550.76563947 894.80891446 550.73805777 913.0700001 550.69666791 931.33111048 C550.67163456 942.58301666 550.65815623 953.83481126 550.6598514 965.08674568 C550.65988135 972.82128862 550.64510149 980.55571861 550.61911669 988.29021746 C550.60458833 992.74074702 550.59616516 997.191045 550.60547829 1001.64159393 C550.71019491 1058.28166236 534.49089534 1107.17937767 494.42628098 1148.13142776 C466.71280485 1175.7416666 429.59436722 1193.36191 391.05128098 1199.13142776 C390.01031863 1199.30082745 388.96935629 1199.47022713 387.89684963 1199.64476013 C381.02223668 1200.4894853 374.07386558 1200.27626155 367.15890121 1200.27186966 C365.52941686 1200.27445579 363.89993314 1200.27746964 362.27045029 1200.28087306 C357.80263998 1200.28891767 353.33484576 1200.29073122 348.86702907 1200.29147053 C344.04395105 1200.2933256 339.22088129 1200.3008754 334.39780807 1200.30760574 C323.85382076 1200.32117328 313.30983726 1200.32721181 302.76584268 1200.3316164 C296.17513273 1200.33438247 289.58442424 1200.33862058 282.99371529 1200.34312057 C264.72753396 1200.35531301 246.4613538 1200.36561119 228.1951685 1200.36899567 C226.44230165 1200.36932502 226.44230165 1200.36932502 224.65402336 1200.36966102 C222.897066 1200.36998843 222.897066 1200.36998843 221.10461456 1200.37032247 C218.73128656 1200.37076592 216.35795857 1200.37121249 213.98463058 1200.37166214 C212.21876828 1200.37199428 212.21876828 1200.37199428 210.417232 1200.37233314 C191.3653565 1200.37627646 172.31351935 1200.39371638 153.26165865 1200.41702166 C133.67705754 1200.44078408 114.09247563 1200.4531998 94.50785989 1200.45436358 C83.52184249 1200.4552778 72.53587502 1200.46096554 61.54987144 1200.4791832 C52.1896617 1200.49465056 42.82951732 1200.49966588 33.46929721 1200.49144509 C28.70113835 1200.48756146 23.93311084 1200.48835499 19.16496849 1200.50250244 C-3.10488673 1200.56480244 -24.78394034 1200.39218147 -46.44871902 1194.44392776 C-47.39682449 1194.18756546 -48.34492996 1193.93120316 -49.3217659 1193.6670723 C-84.75283579 1183.7734463 -114.35700368 1165.18689545 -140.94871902 1140.13142776 C-141.73117996 1139.40310745 -142.5136409 1138.67478714 -143.31981277 1137.92439651 C-176.38000034 1106.1606869 -199.63410185 1055.91873458 -201.04233113 1010.08460173 C-201.07933399 1006.45030958 -201.08511081 1002.8171892 -201.08014679 999.18270874 C-201.08179867 997.76989027 -201.08388597 996.35707225 -201.08636689 994.94425499 C-201.09191438 991.06332202 -201.09126465 987.18241119 -201.0895893 983.30147552 C-201.08885666 979.07852618 -201.09388479 974.855583 -201.09816432 970.63263631 C-201.10573664 962.25743465 -201.10793699 953.88223937 -201.10849338 945.50703464 C-201.10940778 935.47465907 -201.11607765 925.44228939 -201.1228402 915.40991635 C-201.13889524 891.16167901 -201.14480306 866.9134423 -201.14958895 842.66520059 C-201.15192554 831.1914034 -201.15552827 819.71760671 -201.15928433 808.24380991 C-201.17211981 768.95894759 -201.18283867 729.67408556 -201.18628693 690.38922119 C-201.18650856 687.92341513 -201.18673034 685.45760907 -201.18695228 682.99180301 C-201.18717292 680.52007625 -201.1873934 678.04834948 -201.18761373 675.57662272 C-201.18805628 670.61800305 -201.18850339 665.65938338 -201.1889534 660.7007637 C-201.18906279 659.47131555 -201.18917218 658.24186741 -201.18928489 656.97516325 C-201.19291468 617.11959309 -201.2088318 577.26404112 -201.23214376 537.40847793 C-201.25675186 495.25980899 -201.27046023 453.11115044 -201.27165484 410.96247411 C-201.27182629 406.33356301 -201.27204172 401.70465191 -201.27228928 397.07574081 C-201.27237293 395.36611895 -201.27237293 395.36611895 -201.27245827 393.62195927 C-201.27360791 375.29679242 -201.28462254 356.97164428 -201.29917633 338.64648374 C-201.31355829 320.21867933 -201.31676873 301.79089885 -201.30873635 283.36309037 C-201.30428801 272.42291802 -201.30810882 261.48282301 -201.32397486 250.54266086 C-201.33375526 243.22376568 -201.3325175 235.90492444 -201.32253863 228.58602971 C-201.3171686 224.42314994 -201.3163648 220.26041821 -201.32904735 216.09755096 C-201.38861919 195.24580305 -200.81965729 174.87641744 -195.26121902 154.63142776 C-195.00485672 153.6833223 -194.74849442 152.73521683 -194.48436356 151.75838089 C-184.59073756 116.327311 -166.00418671 86.72314311 -140.94871902 60.13142776 C-140.22039871 59.34896683 -139.4920784 58.56650589 -138.74168777 57.76033401 C-103.63559319 21.22133761 -50.20222751 -0.0685669 0 0 Z M-20.94871902 176.13142776 C-21.5648909 176.6560762 -22.18106277 177.18072464 -22.81590652 177.72127151 C-29.85911338 184.14479708 -34.49901778 193.36254327 -35.13438289 202.92603257 C-35.20846849 206.43646117 -35.21742789 209.94192969 -35.20598793 213.45313931 C-35.20868269 214.82201063 -35.21225129 216.19088046 -35.2166124 217.55974749 C-35.22606927 221.32794247 -35.22307012 225.09604076 -35.21805686 228.86424049 C-35.21479139 232.96135 -35.2230718 237.0584388 -35.22987521 241.15554172 C-35.24018713 248.33860013 -35.24301693 255.52163158 -35.24096298 262.70469666 C-35.23791609 273.38631193 -35.24623007 284.06789731 -35.25671223 294.74950678 C-35.27606822 314.93628569 -35.28168106 335.12305445 -35.28282635 355.30984154 C-35.28374496 370.89786668 -35.28785915 386.48588782 -35.2942276 402.07391167 C-35.29602265 406.55873022 -35.29780228 411.04354878 -35.29957736 415.52836734 C-35.30001945 416.64326605 -35.30046155 417.75816476 -35.30091704 418.90684827 C-35.31322794 450.27314646 -35.32111792 481.63944327 -35.32023048 513.00574398 C-35.32019933 514.18866745 -35.32016817 515.37159093 -35.32013607 516.59036057 C-35.31996985 522.58608866 -35.31977177 528.58181674 -35.31956665 534.57754483 C-35.31952676 535.76834582 -35.31948687 536.9591468 -35.31944577 538.18603267 C-35.3193649 540.59412339 -35.3192813 543.00221411 -35.31919499 545.41030483 C-35.31796942 582.87815234 -35.33298277 620.34596366 -35.36034012 657.81380081 C-35.39105398 699.89610251 -35.40827303 741.97838042 -35.40641367 784.06069404 C-35.40626441 788.54708437 -35.406167 793.0334747 -35.40610504 797.51986504 C-35.40608173 798.62455084 -35.40605842 799.72923665 -35.40603441 800.86739778 C-35.40597283 818.65329435 -35.41875068 836.43915952 -35.43596957 854.22504675 C-35.45291435 872.09732417 -35.45490895 889.9695556 -35.44175093 907.84183659 C-35.43435403 918.46175458 -35.43804184 929.08153298 -35.45763561 939.70143621 C-35.46961905 946.79544463 -35.46706275 953.88935176 -35.45269461 960.9833555 C-35.44491778 965.02524048 -35.44341948 969.06685499 -35.45960931 973.1087211 C-35.47422675 976.79029191 -35.47022527 980.47136843 -35.45176158 984.15291767 C-35.44672842 986.09137014 -35.46119805 988.02984385 -35.47660714 989.9682416 C-35.38257123 1001.56640841 -32.78817905 1011.40412528 -24.94871902 1020.13142776 C-24.42407059 1020.74759964 -23.89942215 1021.36377151 -23.35887527 1021.99861526 C-16.76845173 1029.22482084 -7.44906516 1033.63049999 2.31942809 1034.38327676 C3.45322067 1034.38414354 4.58701326 1034.38501032 5.75516319 1034.38590336 C7.07229038 1034.39173555 8.38941756 1034.39756775 9.7464577 1034.40357667 C11.19626132 1034.39994399 12.64606448 1034.39611965 14.09586716 1034.39212418 C15.64514709 1034.39514611 17.19442553 1034.3990358 18.74370134 1034.40371674 C22.99384877 1034.41399962 27.24391188 1034.41181421 31.49406624 1034.40753615 C36.08032135 1034.40506954 40.66655613 1034.41408214 45.2528038 1034.42157364 C54.23388218 1034.43432326 63.21493066 1034.4361141 72.19601656 1034.43377338 C79.49367498 1034.4319908 86.7913243 1034.43373856 94.08898163 1034.43799782 C95.12735005 1034.43859301 96.16571847 1034.4391882 97.2355526 1034.43980142 C99.34490821 1034.44101316 101.45426382 1034.44222729 103.56361942 1034.4434438 C123.34389834 1034.4543198 143.12416021 1034.45215622 162.90444009 1034.44605895 C181.01014604 1034.4408865 199.11579824 1034.45215378 217.22149356 1034.47115717 C235.80705836 1034.49051497 254.39259771 1034.4987954 272.97817266 1034.49503392 C283.41483859 1034.49311916 293.85145873 1034.4956364 304.28811646 1034.50974846 C313.1701147 1034.52163681 322.05203896 1034.52309563 330.93403818 1034.51095829 C335.46730087 1034.50505243 340.00042805 1034.50401723 344.53368187 1034.51596069 C348.68116592 1034.52676111 352.82840036 1034.52378633 356.97587244 1034.50969901 C358.47843387 1034.50703595 359.98101451 1034.50946872 361.48355718 1034.51743487 C363.52204378 1034.52749475 365.56060038 1034.51735558 367.59908104 1034.50615788 C368.73254892 1034.50621289 369.8660168 1034.50626791 371.03383219 1034.50632459 C375.08145156 1034.0034363 377.5281488 1032.25967382 380.73878098 1029.88142776 C384.45603788 1024.92508522 384.33941057 1018.54611013 384.30461407 1012.62380219 C384.30771134 1011.78904938 384.31080861 1010.95429658 384.31399974 1010.09424824 C384.32196215 1007.29653248 384.31571869 1004.4990307 384.3095665 1001.70131302 C384.3124213 999.67528482 384.31615939 997.64925771 384.320705 995.6232326 C384.33069264 990.05473446 384.3283107 984.48629926 384.32397807 978.91779637 C384.32150323 972.91203902 384.33056862 966.90629827 384.33835983 960.90054703 C384.35041037 950.49051863 384.35553738 940.08050175 384.35624123 929.67046738 C384.35742073 914.59858219 384.37263175 899.52673345 384.3917364 884.45486149 C384.40063568 877.42835344 384.40890539 870.40184464 384.41705799 863.37533569 C384.41828462 862.32017376 384.41828462 862.32017376 384.41953603 861.24369542 C384.43887396 844.50070987 384.45241324 827.75772064 384.46461105 811.01472855 C384.46541624 809.91598931 384.46541624 809.91598931 384.4662377 808.79505333 C384.47872353 791.7180718 384.48950447 774.64108982 384.49830246 757.56410599 C384.50137227 751.64693068 384.50446466 745.72975539 384.5075798 739.81258011 C384.50796162 739.08230943 384.50834343 738.35203875 384.50873681 737.59963866 C384.51750864 720.90943258 384.52868869 704.21923426 384.54871082 687.52903748 C384.54997482 686.47508095 384.54997482 686.47508095 384.55126435 685.39983237 C384.55975034 678.38231112 384.56874606 671.36479069 384.57845612 664.34727102 C384.58321712 660.89393255 384.5878327 657.4405939 384.59234428 653.9872551 C384.59323216 653.30766845 384.59412005 652.6280818 384.59503483 651.92790162 C384.60892869 641.02044113 384.61161043 630.11300555 384.60966463 619.20553753 C384.60786341 608.22688972 384.61680612 597.24828673 384.63597303 586.26965448 C384.64598424 580.32913878 384.65118262 574.38872319 384.64320564 568.44820213 C384.63597519 562.99853561 384.64272442 557.54906323 384.66009105 552.09942123 C384.66394202 550.13901262 384.66285631 548.17858598 384.65603416 546.21818545 C384.60422397 530.03268045 385.74140182 513.88954737 391.17628098 498.50642776 C391.62523727 497.20705276 391.62523727 497.20705276 392.0832634 495.88142776 C401.19293586 470.50365244 418.16759511 449.41222421 441.05128098 435.13142776 C442.40866379 434.23037308 442.40866379 434.23037308 443.79346848 433.31111526 C470.38600463 416.51186438 505.85693086 411.22633616 536.55128098 417.75642776 C539.42006095 418.44844979 542.23524681 419.25036217 545.05128098 420.13142776 C546.07681076 420.44491165 546.07681076 420.44491165 547.12305832 420.76472855 C575.94777797 429.86404298 596.79387486 449.22353307 614.46046066 473.01912308 C616.9805145 476.36527191 619.60637078 479.62342306 622.23878098 482.88142776 C627.61289254 489.55466934 632.8501931 496.32288393 638.05128098 503.13142776 C645.40489959 512.72044871 652.81257878 522.26645808 660.23682785 531.80086136 C663.17641435 535.57660043 666.11375813 539.35408312 669.05128098 543.13142776 C670.21793637 544.63143653 671.38460305 546.13143652 672.55128098 547.63142776 C805.55128097 718.63142776 805.55128097 718.63142776 807.30396652 720.88508987 C808.46141053 722.37309355 809.61912191 723.86088929 810.77711105 725.34846878 C813.83719949 729.28027892 816.89147801 733.21643728 819.93799973 737.15877151 C820.57415207 737.98054886 821.21030441 738.8023262 821.8657341 739.64900589 C823.08619615 741.22580723 824.30502878 742.80387152 825.5219841 744.38338089 C826.07176926 745.0930098 826.62155441 745.8026387 827.18799973 746.53377151 C827.66970627 747.1575972 828.15141281 747.78142288 828.64771652 748.42415237 C830.02871472 750.10397851 831.5044411 751.60537844 833.05128098 753.13142776 C833.10263531 699.02587411 833.15039727 644.92031824 833.17831039 590.81474686 C833.17872457 590.01398677 833.17913874 589.21322667 833.17956546 588.38820113 C833.18854415 570.98559081 833.1968547 553.58298023 833.20447696 536.18036927 C833.20821898 527.64615173 833.21210864 519.11193426 833.2160759 510.57771683 C833.21646817 509.72845893 833.21686045 508.87920102 833.21726462 508.00420803 C833.230049 480.47656638 833.25258319 452.94894319 833.28017264 425.42131273 C833.30847253 397.13345523 833.3269378 368.84560796 833.33302595 340.55773654 C833.33389041 336.5624117 833.33486732 332.56708689 833.3359127 328.57176208 C833.33611497 327.78542369 833.33631724 326.9990853 833.33652564 326.18891847 C833.340071 313.53027066 833.35398574 300.87165446 833.37177708 288.21301954 C833.38944147 275.4872833 833.39618424 262.7615784 833.39178511 250.03583033 C833.38970403 243.14055031 833.39245056 236.24535498 833.4088974 229.35009193 C833.42348135 223.03834353 833.42424294 216.72675045 833.41397766 210.41499494 C833.41270867 208.13084516 833.4165268 205.84668574 833.42593052 203.56255497 C833.43797102 200.45757693 833.43147949 197.35315944 833.42042446 194.24818993 C833.4283055 193.36158751 833.43618654 192.47498509 833.4443064 191.56151593 C833.38579104 184.28743497 832.05601395 177.49651526 828.30128098 171.19392776 C821.60426125 165.05499302 814.0296597 165.70625857 805.41722202 165.75111103 C804.01424038 165.74767631 802.61126144 165.7429287 801.20828816 165.73699006 C797.34534703 165.72446309 793.48262632 165.73063815 789.61968411 165.73982374 C785.4199078 165.74652337 781.22016986 165.73587252 777.02040166 165.7274279 C769.65708346 165.71504083 762.29382896 165.71385735 754.93050385 165.71997833 C743.98085416 165.72905628 733.03126356 165.72104785 722.08161842 165.70968709 C702.52591477 165.68999884 682.9702376 165.68767698 663.41452641 165.69288229 C646.29806631 165.69743617 629.1816167 165.69684443 612.06515694 165.69104195 C609.77083056 165.69028509 607.47650418 165.68952911 605.18217781 165.688774 C601.72497936 165.68762883 598.26778091 165.68647895 594.81058247 165.68531476 C562.65836624 165.67460603 530.5061535 165.66988823 498.3539362 165.67778492 C496.53506518 165.67823068 496.53506518 165.67823068 494.67944929 165.67868544 C484.831928 165.68113448 474.98440675 165.68374601 465.13688551 165.68636958 C426.72918367 165.69647072 388.32152555 165.68812062 349.9138298 165.66487503 C306.77677175 165.63880942 263.63974003 165.62595281 220.5026738 165.63306278 C215.90394382 165.63377886 211.30521383 165.63445324 206.70648384 165.63510323 C205.57413503 165.63527303 204.44178621 165.63544284 203.27512379 165.6356178 C186.17231975 165.63792202 169.06954013 165.62993782 151.96674156 165.61681175 C132.51696698 165.60191118 113.06724966 165.60104291 93.61747632 165.61888266 C82.73094812 165.62845665 71.84455344 165.62698841 60.95803412 165.60964797 C53.68630617 165.59917339 46.41468012 165.60323791 39.14296224 165.61912801 C34.99957779 165.62777527 30.85645531 165.63014679 26.71308414 165.61485869 C22.93941108 165.60106615 19.16622393 165.60586839 15.39257906 165.62514388 C13.40490524 165.63060811 11.41720651 165.61657434 9.42958149 165.60161254 C-2.26072227 165.69662711 -12.14501517 168.22333881 -20.94871902 176.13142776 Z " fill="#26E5B7" transform="translate(200.9487190246582,-0.13142776489257813)"/>
<path d="M0 0 C48.33456527 -2.42121199 97.44982987 21.41361377 132.57348633 53.08520508 C135.07333884 55.36477161 137.53765665 57.67991032 140 60 C140.78246094 60.72832031 141.56492187 61.45664062 142.37109375 62.20703125 C175.38955457 93.93065047 198.51228371 143.96942032 200.09409568 189.72161559 C200.13144143 192.83539064 200.13841459 195.94781159 200.13422108 199.06181049 C200.13657331 200.25650661 200.13892554 201.45120273 200.14134905 202.68210176 C200.14684932 205.99092182 200.1479135 209.29968865 200.14707164 212.60850954 C200.14724184 216.21125338 200.15315577 219.81398867 200.1583125 223.4167282 C200.16762016 230.55915843 200.17155745 237.70158247 200.17383147 244.84401801 C200.17679832 253.40086802 200.18549856 261.95770985 200.19424575 270.51455556 C200.21507136 291.19554134 200.22555698 311.87652852 200.23437535 332.55752234 C200.23858455 342.34476353 200.24380617 352.13200411 200.24905988 361.91924479 C200.26694843 395.43439376 200.28194362 428.9495429 200.28938007 462.46469593 C200.28985483 464.56804805 200.29033072 466.67140018 200.29080774 468.7747523 C200.2911623 470.33933028 200.2911623 470.33933028 200.29152403 471.9355159 C200.2927252 477.21995005 200.29394066 482.50438421 200.29516602 487.78881836 C200.29540617 488.8375213 200.29564632 489.88622424 200.29589374 490.96670606 C200.30378492 524.96055539 200.32721388 558.95436981 200.35972196 592.9482039 C200.3940435 628.9041471 200.41373335 664.86006988 200.41702431 700.81602973 C200.41744184 704.76554883 200.4179214 708.71506793 200.41844749 712.66458702 C200.41857069 713.63704115 200.41869388 714.60949527 200.4188208 715.6114177 C200.42114989 731.240276 200.43679348 746.86909365 200.45728934 762.49793747 C200.47757605 778.21706899 200.48301118 793.93615185 200.47351871 809.65529404 C200.46831488 818.98491533 200.4741282 828.31437423 200.49605338 837.64397205 C200.50961386 843.88803942 200.50843842 850.13199566 200.49565142 856.37606427 C200.48878951 859.92591996 200.48796417 863.4754664 200.50521151 867.0252938 C200.65476009 904.78249932 191.68850699 936.22474734 165.05859375 963.9921875 C141.06590385 988.08690715 108.67656795 1000.24606688 75 1000.5 C39.68561307 1000.25535811 9.88869636 986.88869636 -15 962 C-18.17299902 958.46501891 -21.09677102 954.75641838 -24 951 C-25.0593608 949.64411306 -26.11929739 948.28867586 -27.1796875 946.93359375 C-30.18619419 943.08431223 -33.17934056 939.22483164 -36.16943359 935.36279297 C-39.10728259 931.57078142 -42.05395505 927.78564502 -45 924 C-46.16671177 922.50003508 -47.33337837 921.00003503 -48.5 919.5 C-49.0775 918.7575 -49.655 918.015 -50.25 917.25 C-84.66666667 873 -119.08333333 828.75 -153.5 784.5 C-154.07782227 783.75709717 -154.65564453 783.01419434 -155.25097656 782.2487793 C-156.41443312 780.75288338 -157.57784478 779.25695255 -158.74121094 777.76098633 C-161.70661998 773.94790224 -164.67287262 770.13547936 -167.640625 766.32421875 C-173.57983564 758.69540508 -179.50235967 751.05493357 -185.390625 743.38671875 C-190.29394626 737.01278359 -195.2448486 730.67553266 -200.18554688 724.33056641 C-203.12513338 720.55482734 -206.06247715 716.77734465 -209 713 C-210.16665539 711.49999123 -211.33332207 709.99999124 -212.5 708.5 C-219.5 699.49999999 -219.5 699.49999999 -221.25244141 697.24682617 C-222.41092492 695.75737049 -223.56945305 694.26794952 -224.72802734 692.77856445 C-227.77027635 688.86753006 -230.811587 684.95577063 -233.8515625 681.04296875 C-234.48320313 680.23021484 -235.11484375 679.41746094 -235.765625 678.58007812 C-236.9716418 677.02821828 -238.17738748 675.47614768 -239.3828125 673.92382812 C-239.929375 673.22064453 -240.4759375 672.51746094 -241.0390625 671.79296875 C-241.75376709 670.87294067 -241.75376709 670.87294067 -242.48291016 669.93432617 C-244.30591485 667.60995118 -246.15354388 665.30577055 -248 663 C-248.00089563 664.16069323 -248.00089563 664.16069323 -248.00180936 665.3448348 C-248.03776784 711.29055585 -248.09450554 757.23621147 -248.17792095 803.1818721 C-248.18793742 808.70881291 -248.19778172 814.23575401 -248.20751953 819.76269531 C-248.21043159 821.41304334 -248.21043159 821.41304334 -248.21340248 823.09673172 C-248.24435373 840.86992944 -248.26138388 858.64311428 -248.27319422 876.41633385 C-248.28564151 894.6774867 -248.31322321 912.93857233 -248.35461307 931.19968271 C-248.37964642 942.4515889 -248.39312474 953.70338349 -248.39142957 964.95531791 C-248.39139963 972.68986086 -248.40617948 980.42429084 -248.43216428 988.15878969 C-248.44669265 992.60931925 -248.45511581 997.05961723 -248.44580269 1001.51016617 C-248.34108606 1058.1502346 -264.56038564 1107.04794991 -304.625 1148 C-332.44642796 1175.71778853 -369.39430243 1193.0013097 -408 1199 C-408.66644531 1199.1038501 -409.33289063 1199.2077002 -410.01953125 1199.31469727 C-415.02827352 1200.02044091 -419.94754 1200.11941679 -425 1200.0625 C-425.77472656 1200.05798828 -426.54945313 1200.05347656 -427.34765625 1200.04882812 C-429.23180524 1200.03719758 -431.11591365 1200.01926906 -433 1200 C-433 1199.67 -433 1199.34 -433 1199 C-432.14728516 1198.814375 -432.14728516 1198.814375 -431.27734375 1198.625 C-424.64260197 1196.85278183 -420.73197473 1193.78678225 -417 1188 C-416.04142143 1184.96764111 -415.87699082 1182.22033234 -415.88184834 1179.05016327 C-415.88092629 1178.04306258 -415.88000424 1177.03596189 -415.87905425 1175.99834299 C-415.88313947 1174.88928897 -415.8872247 1173.78023496 -415.89143372 1172.63757324 C-415.89178063 1171.45156446 -415.89212754 1170.26555568 -415.89248496 1169.04360723 C-415.89398491 1166.41677547 -415.89735272 1163.79001973 -415.90376687 1161.16320229 C-415.91432818 1156.81426148 -415.9176815 1152.46533059 -415.92030144 1148.11637878 C-415.92489532 1141.63558914 -415.93278621 1135.15481021 -415.94260216 1128.67402649 C-415.95855446 1117.96510079 -415.96608934 1107.25617681 -415.97163391 1096.54724121 C-415.97211764 1095.61577965 -415.97260137 1094.68431809 -415.97309976 1093.72463042 C-415.97556819 1088.88238376 -415.97787874 1084.04013706 -415.98008263 1079.19789028 C-415.98193831 1075.15289007 -415.98402028 1071.10789006 -415.98628986 1067.06289005 C-416.03253902 983.99254742 -415.90238731 900.92215221 -415.76766033 817.85193144 C-415.75753984 811.60620312 -415.74752579 805.36047464 -415.73754883 799.11474609 C-415.73644608 798.42610923 -415.73534334 797.73747237 -415.73420718 797.02796772 C-415.69794221 774.33900118 -415.67222504 751.65003668 -415.65161031 728.96105096 C-415.63001023 705.24250976 -415.59872814 681.52400111 -415.55500887 657.80548984 C-415.52717163 642.69690173 -415.5074539 627.58835446 -415.50065396 612.47974133 C-415.49539818 602.68452136 -415.47917558 592.88935768 -415.45433434 583.09416795 C-415.44037997 577.46851356 -415.43112728 571.84295983 -415.43499184 566.21728706 C-415.43842646 561.06249778 -415.4278999 555.90792319 -415.40676448 550.75317782 C-415.40154346 548.90241523 -415.40121158 547.05163005 -415.40660437 545.20086795 C-415.44810336 529.33327294 -414.19993952 513.44694167 -408.875 498.375 C-408.5756958 497.50875 -408.2763916 496.6425 -407.96801758 495.75 C-398.74874351 470.06689593 -381.20939987 448.384533 -358 434 C-357.09636719 433.40058594 -356.19273437 432.80117188 -355.26171875 432.18359375 C-328.6769556 415.37540545 -293.19004809 410.09582363 -262.5 416.625 C-259.63122002 417.31702203 -256.81603416 418.11893441 -254 419 C-252.97447021 419.31348389 -252.97447021 419.31348389 -251.92822266 419.63330078 C-222.72710052 428.851437 -201.44422268 448.76042543 -183.57470703 472.90380859 C-181.0631674 476.2470767 -178.44066736 479.4981496 -175.8125 482.75 C-170.43828648 489.42315673 -165.20108538 496.19145943 -160 503 C-152.64638139 512.58902095 -145.23870219 522.13503031 -137.81445312 531.66943359 C-134.87486662 535.44517266 -131.93752285 539.22265535 -129 543 C-127.83334461 544.50000877 -126.66667793 546.00000876 -125.5 547.5 C7.5 718.5 7.5 718.5 9.25317383 720.75415039 C10.40917076 722.240386 11.56525666 723.72655242 12.72143555 725.21264648 C15.80211687 729.17265185 18.88083379 733.13416644 21.95703125 737.09765625 C22.60220703 737.92845703 23.24738281 738.75925781 23.91210938 739.61523438 C25.15746381 741.21896419 26.40227548 742.82311566 27.64648438 744.42773438 C28.20271484 745.14380859 28.75894531 745.85988281 29.33203125 746.59765625 C29.82421143 747.23195557 30.3163916 747.86625488 30.82348633 748.51977539 C31.92382181 749.96168097 31.92382181 749.96168097 33 751 C33.06854899 682.59391231 33.13214815 614.18782052 33.16937256 545.78170776 C33.16992479 544.76948704 33.17047702 543.75726632 33.17104598 542.71437224 C33.18301724 520.71678224 33.19409802 498.71919187 33.20426132 476.72160096 C33.20925072 465.93419222 33.21443693 455.14678359 33.21972656 444.359375 C33.22051112 442.74914854 33.22051112 442.74914854 33.22131152 441.10639226 C33.23836089 406.30347518 33.2684091 371.50058405 33.30518888 336.6976827 C33.34291217 300.93708811 33.36754013 265.17650788 33.37565996 229.41589372 C33.3768126 224.36647423 33.37811515 219.31705478 33.37950897 214.26763535 C33.37977866 213.27382438 33.38004836 212.28001341 33.38032622 211.25608697 C33.3850555 195.25003388 33.40361422 179.24402519 33.42732814 163.23799022 C33.45086653 147.15162896 33.45987457 131.06531177 33.45400551 114.97893389 C33.4509602 105.4184107 33.45910086 95.85804862 33.48319017 86.29755448 C33.49818218 79.91202401 33.49865998 73.52659913 33.48732725 67.14106139 C33.48128468 63.50204543 33.48156108 59.8633343 33.49953273 56.22435094 C33.51875383 52.30255294 33.50696162 48.3811928 33.49219131 44.45936775 C33.50269937 43.33211352 33.51320742 42.20485928 33.5240339 41.04344583 C33.44130946 31.35210873 30.80488701 23.80031692 25 16 C24.40445312 15.19433594 23.80890625 14.38867188 23.1953125 13.55859375 C17.22918906 6.60519366 8.77013455 2.99753607 0 1 C0 0.67 0 0.34 0 0 Z " fill="#62F555" transform="translate(1000,0)"/>
</svg>
