<svg width="34" height="34" viewBox="0 0 34 34" fill="none" xmlns="http://www.w3.org/2000/svg">
<g clip-path="url(#clip0_25_112)">
<path d="M5.69345 -0.0037333C5.73348 -0.0037801 5.77351 -0.00383924 5.81354 -0.00390953C5.92349 -0.00406671 6.03345 -0.0040483 6.14341 -0.00400083C6.26306 -0.00398008 6.38271 -0.00412254 6.50236 -0.00424379C6.73966 -0.00445834 6.97696 -0.00452069 7.21426 -0.00453645C7.49851 -0.00456236 7.78276 -0.00475134 8.06701 -0.00494294C8.75404 -0.00539784 9.44107 -0.00556522 10.1281 -0.00570082C10.4532 -0.00576703 10.7783 -0.00586911 11.1034 -0.00597553C12.2165 -0.0063392 13.3295 -0.0066429 14.4426 -0.0067406C14.5125 -0.00674688 14.5823 -0.00675316 14.6522 -0.00675945C14.7222 -0.0067657 14.7923 -0.00677195 14.8623 -0.00677819C15.0028 -0.00679073 15.1433 -0.0068034 15.2838 -0.00681615C15.336 -0.0068208 15.336 -0.0068208 15.3893 -0.00682554C16.5186 -0.00692839 17.6478 -0.00737937 18.777 -0.00803988C19.9713 -0.00873711 21.1655 -0.00912551 22.3597 -0.00915936C22.4908 -0.00916422 22.622 -0.00917032 22.7531 -0.00917733C22.7854 -0.00917891 22.8177 -0.00918049 22.851 -0.00918212C23.3702 -0.00921469 23.8894 -0.00952678 24.4086 -0.00993913C24.9308 -0.0103466 25.4529 -0.0104376 25.975 -0.01021C26.285 -0.010084 26.5949 -0.0101922 26.9049 -0.0106418C27.1123 -0.0109189 27.3196 -0.0108838 27.527 -0.0106011C27.645 -0.0104489 27.7629 -0.0104261 27.8809 -0.0107855C28.4717 -0.0124733 29.0488 0.00364724 29.6224 0.161136C29.6493 0.1684 29.6761 0.175664 29.7038 0.183147C30.7077 0.463467 31.5465 0.990085 32.2999 1.69999C32.3221 1.72063 32.3442 1.74126 32.3671 1.76252C33.3026 2.66136 33.9577 4.07912 34.0026 5.37544C34.0036 5.46366 34.0038 5.55184 34.0037 5.64007C34.0038 5.67392 34.0038 5.70777 34.0039 5.74265C34.0041 5.8364 34.0041 5.93015 34.0041 6.0239C34.0041 6.12598 34.0042 6.22805 34.0044 6.33013C34.0046 6.5325 34.0048 6.73487 34.0048 6.93724C34.0049 7.17968 34.0052 7.42212 34.0054 7.66457C34.006 8.25053 34.0063 8.83649 34.0065 9.42245C34.0067 9.69976 34.0068 9.97706 34.007 10.2544C34.0075 11.204 34.0079 12.1536 34.0081 13.1032C34.0081 13.1628 34.0081 13.2223 34.0081 13.2819C34.0081 13.3263 34.0081 13.3263 34.0082 13.3715C34.0082 13.5212 34.0082 13.6709 34.0083 13.8207C34.0083 13.8504 34.0083 13.8801 34.0083 13.9107C34.0085 14.8739 34.0092 15.837 34.0101 16.8002C34.0111 17.8189 34.0116 18.8377 34.0117 19.8564C34.0117 19.9683 34.0117 20.0802 34.0118 20.1922C34.0118 20.2197 34.0118 20.2473 34.0118 20.2756C34.0118 20.7185 34.0123 21.1613 34.0129 21.6041C34.0134 22.0495 34.0136 22.4948 34.0133 22.9402C34.0132 23.2046 34.0133 23.4689 34.014 23.7332C34.0143 23.9101 34.0143 24.0871 34.0139 24.264C34.0137 24.3646 34.0137 24.4651 34.0142 24.5657C34.0184 25.6355 33.7644 26.5264 33.0099 27.3131C32.3301 27.9958 31.4124 28.3403 30.4582 28.3475C29.4577 28.3406 28.6134 27.9618 27.9082 27.2567C27.8183 27.1565 27.7355 27.0514 27.6532 26.945C27.6232 26.9066 27.5932 26.8682 27.5631 26.8298C27.478 26.7207 27.3931 26.6114 27.3084 26.5019C27.2252 26.3945 27.1417 26.2872 27.0582 26.18C27.0252 26.1375 26.9921 26.095 26.9591 26.0525C26.9427 26.0314 26.9263 26.0104 26.9095 25.9887C25.9343 24.735 24.9592 23.4812 23.9841 22.2275C23.9677 22.2064 23.9513 22.1854 23.9345 22.1637C23.9015 22.1213 23.8685 22.0789 23.8356 22.0365C23.7515 21.9285 23.6675 21.8205 23.5834 21.7125C23.4151 21.4964 23.2473 21.2799 23.0805 21.0626C22.9416 20.882 22.8013 20.7025 22.6613 20.5227C22.578 20.4157 22.4948 20.3087 22.4116 20.2017C22.3785 20.1592 22.3455 20.1167 22.3124 20.0742C22.1141 19.8192 22.1141 19.8192 22.0644 19.7553C22.0316 19.7131 21.9988 19.6709 21.9659 19.6287C21.8797 19.5179 21.7936 19.4071 21.7074 19.2962C21.6895 19.2732 21.6716 19.2501 21.6532 19.2264C21.619 19.1825 21.5849 19.1385 21.5507 19.0945C21.5352 19.0746 21.5197 19.0546 21.5038 19.0341C21.4903 19.0167 21.4768 18.9994 21.4629 18.9815C21.4112 18.9156 21.3589 18.8503 21.3066 18.785C21.3065 18.8069 21.3065 18.8288 21.3065 18.8514C21.3055 20.1532 21.3039 21.455 21.3015 22.7568C21.3012 22.9134 21.301 23.07 21.3007 23.2266C21.3006 23.2578 21.3006 23.2889 21.3005 23.3211C21.2996 23.8246 21.2992 24.3282 21.2988 24.8318C21.2985 25.3492 21.2977 25.8666 21.2965 26.384C21.2958 26.7028 21.2954 27.0216 21.2955 27.3404C21.2955 27.5595 21.2951 27.7787 21.2943 27.9978C21.2939 28.1239 21.2937 28.25 21.2939 28.3761C21.2969 29.9809 20.8374 31.3663 19.7022 32.5267C18.917 33.3089 17.8653 33.8082 16.7732 33.9717C16.7437 33.9765 16.7142 33.9813 16.6839 33.9862C16.4891 34.0101 16.2922 34.0041 16.0963 34.004C16.0501 34.004 16.0039 34.0041 15.9578 34.0042C15.8312 34.0045 15.7046 34.0045 15.578 34.0045C15.4414 34.0046 15.3047 34.0048 15.1681 34.005C14.8693 34.0054 14.5706 34.0055 14.2718 34.0057C14.0851 34.0057 13.8983 34.0059 13.7116 34.006C13.1941 34.0063 12.6765 34.0066 12.159 34.0067C12.1093 34.0067 12.1093 34.0067 12.0586 34.0067C12.0089 34.0067 12.0089 34.0067 11.9581 34.0068C11.8908 34.0068 11.8236 34.0068 11.7563 34.0068C11.7063 34.0068 11.7063 34.0068 11.6553 34.0068C11.1155 34.0069 10.5757 34.0074 10.0359 34.0081C9.48096 34.0088 8.92607 34.0091 8.37117 34.0091C8.0599 34.0092 7.74863 34.0093 7.43736 34.0098C7.17215 34.0103 6.90695 34.0104 6.64174 34.0102C6.50664 34.0101 6.37155 34.0101 6.23645 34.0105C5.60547 34.0123 4.99123 34.0074 4.3774 33.8388C4.35054 33.8316 4.32367 33.8243 4.296 33.8168C3.29212 33.5365 2.45333 33.0099 1.6999 32.3C1.67773 32.2794 1.65556 32.2587 1.63272 32.2375C0.696012 31.3375 0.0371463 29.914 -0.00275351 28.6153C-0.00380192 28.5124 -0.00396591 28.4094 -0.00382526 28.3064C-0.00387206 28.2664 -0.00393092 28.2264 -0.00400122 28.1864C-0.0041584 28.0764 -0.00413991 27.9664 -0.00409244 27.8565C-0.00407168 27.7368 -0.00421416 27.6172 -0.00433541 27.4975C-0.00454996 27.2602 -0.00461233 27.0229 -0.0046281 26.7856C-0.00465401 26.5014 -0.00484289 26.2171 -0.00503449 25.9329C-0.00548938 25.2458 -0.00565677 24.5588 -0.00579237 23.8718C-0.00585857 23.5467 -0.00596091 23.2216 -0.00606733 22.8965C-0.00643101 21.7834 -0.00673486 20.6704 -0.00683256 19.5573C-0.00683884 19.4874 -0.00684486 19.4176 -0.00685115 19.3477C-0.0068574 19.2777 -0.0068635 19.2076 -0.00686974 19.1376C-0.00688228 18.9971 -0.00689504 18.8566 -0.00690779 18.7161C-0.00691089 18.6813 -0.00691411 18.6465 -0.0069173 18.6106C-0.00702014 17.4813 -0.00747121 16.3521 -0.00813172 15.2228C-0.00882895 14.0286 -0.00921718 12.8344 -0.00925103 11.6402C-0.00925589 11.509 -0.00926217 11.3779 -0.00926919 11.2467C-0.00927156 11.1983 -0.00927152 11.1983 -0.00927394 11.1489C-0.00930652 10.6297 -0.0096186 10.1105 -0.010031 9.59125C-0.0104384 9.06913 -0.0105292 8.54701 -0.0103016 8.02489C-0.0101756 7.71492 -0.010284 7.40495 -0.0107335 7.09497C-0.0110106 6.88761 -0.0109756 6.68024 -0.0106929 6.47287C-0.0105407 6.35492 -0.0105177 6.23698 -0.010877 6.11903C-0.0125649 5.52823 0.0035556 4.9511 0.161045 4.37749C0.168308 4.35063 0.175572 4.32376 0.183056 4.29609C0.463375 3.29221 0.989994 2.45342 1.6999 1.69999C1.72053 1.67782 1.74117 1.65565 1.76243 1.63281C2.7571 0.597538 4.27105 -0.00567603 5.69345 -0.0037333ZM5.0999 4.98666C5.08244 5.00152 5.06498 5.01639 5.047 5.0317C4.84744 5.2137 4.71597 5.47487 4.69797 5.74584C4.69587 5.8453 4.69562 5.94462 4.69594 6.04411C4.69587 6.08289 4.69577 6.12167 4.69564 6.16046C4.69537 6.26722 4.69546 6.37399 4.6956 6.48075C4.69569 6.59684 4.69546 6.71292 4.69527 6.82901C4.69497 7.03253 4.69489 7.23605 4.69495 7.43957C4.69504 7.74221 4.6948 8.04486 4.69451 8.3475C4.69396 8.91946 4.6938 9.49142 4.69377 10.0634C4.69374 10.505 4.69362 10.9467 4.69344 11.3884C4.69339 11.5154 4.69334 11.6425 4.69329 11.7696C4.69328 11.8012 4.69327 11.8327 4.69325 11.8653C4.6929 12.754 4.69268 13.6427 4.69271 14.5314C4.69271 14.5649 4.69271 14.5985 4.69271 14.633C4.69271 14.8029 4.69272 14.9727 4.69272 15.1426C4.69273 15.1764 4.69273 15.2101 4.69273 15.2449C4.69273 15.3131 4.69273 15.3813 4.69274 15.4496C4.69277 16.5111 4.69234 17.5727 4.69157 18.6343C4.6907 19.8267 4.69021 21.019 4.69026 22.2113C4.69027 22.3384 4.69027 22.4655 4.69027 22.5927C4.69027 22.624 4.69027 22.6553 4.69027 22.6875C4.69028 23.1914 4.68991 23.6954 4.68943 24.1993C4.68895 24.7057 4.68889 25.2121 4.68926 25.7184C4.68947 26.0193 4.68937 26.3202 4.68881 26.6211C4.68847 26.8221 4.68855 27.0231 4.68895 27.2241C4.68917 27.3386 4.68922 27.4532 4.68876 27.5677C4.68834 27.672 4.68846 27.7763 4.68898 27.8806C4.68912 27.9355 4.68871 27.9904 4.68828 28.0454C4.69094 28.374 4.76445 28.6527 4.98657 28.9C5.00143 28.9174 5.0163 28.9349 5.03161 28.9529C5.21834 29.1576 5.48239 29.2825 5.75916 29.3038C5.79129 29.3038 5.82341 29.3038 5.85651 29.3039C5.89383 29.304 5.93115 29.3042 5.9696 29.3044C6.01067 29.3043 6.05175 29.3042 6.09283 29.304C6.13672 29.3041 6.18062 29.3042 6.22452 29.3044C6.34494 29.3047 6.46536 29.3046 6.58578 29.3045C6.71572 29.3044 6.84566 29.3047 6.97561 29.3049C7.23007 29.3052 7.48453 29.3053 7.739 29.3052C7.94577 29.3052 8.15253 29.3052 8.3593 29.3053C8.38872 29.3054 8.41814 29.3054 8.44845 29.3054C8.50822 29.3054 8.56798 29.3055 8.62775 29.3055C9.18819 29.3058 9.74863 29.3057 10.3091 29.3056C10.8221 29.3054 11.3351 29.3057 11.8481 29.3063C12.3746 29.3068 12.9012 29.3071 13.4278 29.307C13.7235 29.3069 14.0192 29.307 14.3149 29.3074C14.5666 29.3077 14.8183 29.3078 15.0699 29.3074C15.1984 29.3072 15.3268 29.3072 15.4552 29.3076C15.5727 29.3079 15.6903 29.3078 15.8078 29.3074C15.8503 29.3073 15.8929 29.3074 15.9355 29.3076C15.9932 29.3079 16.051 29.3076 16.1088 29.3073C16.1409 29.3073 16.173 29.3073 16.2061 29.3073C16.3208 29.293 16.3901 29.2436 16.481 29.1762C16.5864 29.0358 16.5831 28.8551 16.5821 28.6873C16.5822 28.6636 16.5823 28.64 16.5823 28.6156C16.5826 28.5363 16.5824 28.4571 16.5822 28.3778C16.5823 28.3204 16.5824 28.263 16.5825 28.2056C16.5828 28.0478 16.5827 27.89 16.5826 27.7323C16.5826 27.5621 16.5828 27.3919 16.583 27.2218C16.5834 26.9268 16.5835 26.6319 16.5835 26.3369C16.5836 25.9099 16.584 25.4829 16.5845 25.0558C16.5848 24.8567 16.585 24.6576 16.5853 24.4586C16.5853 24.4287 16.5853 24.4287 16.5853 24.3982C16.5859 23.9238 16.5863 23.4494 16.5866 22.975C16.5866 22.9439 16.5866 22.9439 16.5867 22.9121C16.587 22.4283 16.5873 21.9444 16.5876 21.4606C16.5877 21.2929 16.5877 21.1253 16.5878 20.9576C16.5878 20.9369 16.5878 20.9162 16.5879 20.8949C16.5881 20.422 16.5884 19.9491 16.589 19.4763C16.589 19.4464 16.589 19.4464 16.5891 19.4159C16.5893 19.2171 16.5896 19.0183 16.5898 18.8194C16.59 18.7216 16.5901 18.6237 16.5902 18.5259C16.5903 18.5066 16.5903 18.4874 16.5903 18.4676C16.5907 18.1585 16.5908 17.8495 16.5907 17.5404C16.5907 17.2294 16.5909 16.9183 16.5915 16.6072C16.5917 16.4389 16.5919 16.2706 16.5917 16.1023C16.5915 15.9479 16.5917 15.7935 16.5921 15.6391C16.5923 15.5835 16.5922 15.528 16.592 15.4724C16.5906 15.0139 16.6228 14.5565 16.7768 14.1206C16.7895 14.0838 16.7895 14.0838 16.8025 14.0462C17.0606 13.3272 17.5415 12.7296 18.1899 12.325C18.2284 12.2995 18.2284 12.2995 18.2676 12.2734C19.021 11.7974 20.0261 11.6477 20.8957 11.8327C20.977 11.8523 21.0568 11.875 21.1366 11.9C21.1656 11.9089 21.1656 11.9089 21.1953 11.9179C22.012 12.1757 22.6026 12.7243 23.1032 13.3985C23.1746 13.4933 23.249 13.5856 23.3235 13.6779C23.4758 13.867 23.6242 14.0587 23.7716 14.2517C23.9799 14.5233 24.1898 14.7938 24.4002 15.064C24.4834 15.1709 24.5667 15.278 24.6499 15.385C24.683 15.4275 24.716 15.47 24.7491 15.5125C28.5174 20.3575 28.5174 20.3575 28.5671 20.4213C28.5999 20.4635 28.6327 20.5057 28.6655 20.5478C28.7522 20.6592 28.8387 20.7707 28.925 20.8824C28.943 20.9057 28.9611 20.929 28.9796 20.953C29.0142 20.9977 29.0488 21.0424 29.0832 21.0871C29.0988 21.1072 29.1144 21.1273 29.1304 21.1481C29.1441 21.1657 29.1577 21.1834 29.1718 21.2016C29.2109 21.2492 29.2527 21.2917 29.2966 21.335C29.298 19.802 29.2994 18.269 29.3002 16.736C29.3002 16.7133 29.3002 16.6906 29.3002 16.6673C29.3005 16.1742 29.3007 15.6811 29.3009 15.188C29.301 14.9462 29.3011 14.7044 29.3012 14.4626C29.3012 14.4386 29.3013 14.4145 29.3013 14.3897C29.3016 13.6098 29.3023 12.8298 29.303 12.0499C29.3039 11.2484 29.3044 10.4469 29.3045 9.6454C29.3046 9.5322 29.3046 9.419 29.3046 9.3058C29.3046 9.28352 29.3046 9.26124 29.3046 9.23828C29.3047 8.87962 29.3051 8.52096 29.3056 8.1623C29.3061 7.80174 29.3063 7.44118 29.3062 7.08061C29.3062 6.88525 29.3062 6.68988 29.3067 6.49452C29.3071 6.31569 29.3071 6.13686 29.3068 5.95802C29.3068 5.89331 29.3069 5.82859 29.3072 5.76387C29.3075 5.6759 29.3073 5.58794 29.307 5.49996C29.3072 5.47484 29.3075 5.44972 29.3077 5.42384C29.306 5.21774 29.2684 5.02533 29.162 4.84676C28.9722 4.67282 28.7576 4.69128 28.5136 4.69255C28.4738 4.69245 28.4341 4.69232 28.3943 4.69215C28.2849 4.69179 28.1755 4.69197 28.066 4.69223C27.947 4.69242 27.828 4.69212 27.709 4.69188C27.5004 4.69153 27.2918 4.69149 27.0831 4.69167C26.7729 4.69192 26.4627 4.6917 26.1524 4.69137C25.5983 4.69082 25.0443 4.69075 24.4902 4.6909C24.0052 4.69103 23.5203 4.69101 23.0353 4.69085C22.9703 4.69082 22.9053 4.6908 22.8403 4.69078C22.7423 4.69075 22.6444 4.69072 22.5464 4.69068C21.6354 4.69038 20.7245 4.69025 19.8135 4.69047C19.7619 4.69048 19.7619 4.69048 19.7094 4.6905C19.4303 4.69057 19.1513 4.69064 18.8723 4.69071C17.7841 4.691 16.6959 4.69076 15.6077 4.6901C14.3855 4.68937 13.1632 4.689 11.941 4.6892C11.8107 4.68922 11.6804 4.68924 11.5501 4.68926C11.518 4.68927 11.486 4.68927 11.4529 4.68928C10.9683 4.68934 10.4837 4.68911 9.99917 4.68874C9.44809 4.68832 8.89702 4.6883 8.34594 4.6888C8.03749 4.68907 7.72904 4.68903 7.42059 4.68854C7.21456 4.68824 7.00853 4.68836 6.8025 4.68881C6.6851 4.68905 6.56771 4.68912 6.45032 4.68869C6.3434 4.6883 6.23649 4.68843 6.12957 4.68898C6.07325 4.68913 6.01693 4.68874 5.96062 4.68831C5.62939 4.691 5.34934 4.76259 5.0999 4.98666Z" fill="#26E5B7"/>
<path d="M28.3333 5.73187e-06C29.7028 -0.0685953 31.0944 0.606725 32.0895 1.50409C32.1604 1.56867 32.2302 1.63427 32.2999 1.70001C32.3221 1.72064 32.3443 1.74128 32.3671 1.76254C33.3026 2.66137 33.9578 4.07914 34.0026 5.37545C34.0037 5.46368 34.0039 5.55186 34.0037 5.64009C34.0038 5.67394 34.0039 5.70779 34.0039 5.74267C34.0041 5.83642 34.0041 5.93016 34.0041 6.02391C34.0041 6.12599 34.0043 6.22807 34.0044 6.33015C34.0047 6.53252 34.0048 6.73488 34.0049 6.93725C34.005 7.1797 34.0052 7.42214 34.0054 7.66458C34.006 8.25055 34.0063 8.83651 34.0066 9.42247C34.0067 9.69977 34.0068 9.97708 34.007 10.2544C34.0075 11.204 34.0079 12.1536 34.0081 13.1032C34.0082 13.1628 34.0082 13.2224 34.0082 13.282C34.0082 13.3263 34.0082 13.3263 34.0082 13.3715C34.0082 13.5212 34.0083 13.671 34.0083 13.8207C34.0083 13.8504 34.0083 13.8801 34.0083 13.9107C34.0085 14.8739 34.0092 15.837 34.0101 16.8002C34.0111 17.819 34.0117 18.8377 34.0118 19.8565C34.0118 19.9684 34.0118 20.0803 34.0118 20.1922C34.0118 20.2197 34.0118 20.2473 34.0118 20.2757C34.0119 20.7185 34.0123 21.1613 34.0129 21.6041C34.0135 22.0495 34.0136 22.4949 34.0134 22.9402C34.0132 23.2046 34.0134 23.4689 34.014 23.7333C34.0144 23.9102 34.0143 24.0871 34.014 24.264C34.0138 24.3646 34.0138 24.4651 34.0143 24.5657C34.0185 25.6355 33.7644 26.5264 33.0099 27.3131C32.3301 27.9958 31.4124 28.3403 30.4583 28.3475C29.4577 28.3406 28.6135 27.9619 27.9083 27.2567C27.8184 27.1565 27.7355 27.0514 27.6533 26.945C27.6233 26.9066 27.5932 26.8682 27.5632 26.8298C27.478 26.7207 27.3932 26.6114 27.3085 26.502C27.2252 26.3945 27.1417 26.2873 27.0583 26.18C27.0252 26.1375 26.9922 26.095 26.9591 26.0525C26.9427 26.0315 26.9264 26.0104 26.9095 25.9888C25.9344 24.735 24.9592 23.4813 23.9841 22.2275C23.9677 22.2065 23.9514 22.1854 23.9345 22.1637C23.9015 22.1213 23.8686 22.079 23.8356 22.0366C23.7516 21.9285 23.6675 21.8205 23.5835 21.7125C23.4152 21.4964 23.2474 21.2799 23.0805 21.0626C22.9416 20.882 22.8013 20.7025 22.6614 20.5227C22.5781 20.4157 22.4948 20.3087 22.4116 20.2017C22.3786 20.1592 22.3455 20.1167 22.3124 20.0742C22.1141 19.8192 22.1141 19.8192 22.0645 19.7553C22.0316 19.7131 21.9988 19.6709 21.966 19.6287C21.8798 19.5179 21.7936 19.4071 21.7075 19.2962C21.6896 19.2732 21.6717 19.2502 21.6532 19.2264C21.6191 19.1825 21.5849 19.1385 21.5508 19.0945C21.5353 19.0746 21.5198 19.0547 21.5038 19.0341C21.4836 19.0081 21.4836 19.0081 21.4629 18.9815C21.4113 18.9156 21.3589 18.8503 21.3066 18.785C21.3066 18.8179 21.3066 18.8179 21.3066 18.8514C21.3055 20.1532 21.3039 21.455 21.3016 22.7568C21.3013 22.9134 21.301 23.07 21.3007 23.2266C21.3006 23.2734 21.3006 23.2734 21.3006 23.3211C21.2997 23.8247 21.2992 24.3282 21.2989 24.8318C21.2985 25.3492 21.2977 25.8666 21.2966 26.384C21.2959 26.7028 21.2955 27.0216 21.2955 27.3404C21.2955 27.5596 21.2951 27.7787 21.2944 27.9978C21.294 28.1239 21.2937 28.25 21.294 28.3761C21.2969 29.9809 20.8374 31.3664 19.7022 32.5267C18.914 33.312 17.8671 33.8017 16.7733 33.9717C16.7544 33.9746 16.7355 33.9776 16.7161 33.9806C16.5741 34.0006 16.4348 34.0034 16.2916 34.0018C16.2697 34.0016 16.2477 34.0015 16.2251 34.0014C16.1717 34.0011 16.1183 34.0006 16.0649 34C16.0649 33.9907 16.0649 33.9813 16.0649 33.9717C16.0891 33.9664 16.0891 33.9664 16.1138 33.961C16.3017 33.9108 16.4125 33.824 16.5183 33.66C16.5454 33.5741 16.5501 33.4962 16.55 33.4064C16.55 33.3779 16.55 33.3494 16.55 33.32C16.5499 33.2885 16.5498 33.2571 16.5497 33.2247C16.5497 33.1911 16.5497 33.1575 16.5497 33.1229C16.5496 33.0485 16.5495 32.9741 16.5493 32.8996C16.549 32.7764 16.5489 32.6532 16.5489 32.53C16.5487 32.3463 16.5485 32.1627 16.5482 31.9791C16.5478 31.6757 16.5476 31.3723 16.5474 31.0688C16.5474 31.0425 16.5474 31.0161 16.5474 30.9889C16.5473 30.8517 16.5472 30.7145 16.5472 30.5773C16.5471 30.4627 16.5471 30.3481 16.547 30.2335C16.5457 27.8798 16.5494 25.5261 16.5532 23.1725C16.5535 22.9955 16.5538 22.8186 16.554 22.6416C16.5541 22.6221 16.5541 22.6026 16.5541 22.5825C16.5552 21.9396 16.5559 21.2968 16.5565 20.6539C16.5571 19.9819 16.558 19.3099 16.5592 18.6378C16.56 18.2098 16.5606 17.7817 16.5608 17.3536C16.5609 17.0761 16.5614 16.7985 16.5621 16.521C16.5625 16.3616 16.5627 16.2022 16.5626 16.0428C16.5625 15.8968 16.5628 15.7507 16.5634 15.6047C16.5636 15.5522 16.5636 15.4998 16.5634 15.4474C16.5622 14.9978 16.5976 14.5477 16.7485 14.1206C16.757 14.0961 16.7654 14.0715 16.7742 14.0463C17.0354 13.3186 17.5323 12.7042 18.1899 12.2967C18.2155 12.2797 18.2411 12.2627 18.2675 12.2452C19.0208 11.769 20.0262 11.6194 20.8958 11.8044C20.9771 11.824 21.0568 11.8467 21.1366 11.8717C21.1657 11.8806 21.1657 11.8806 21.1953 11.8896C22.0227 12.1508 22.6257 12.7149 23.132 13.3989C23.2032 13.4937 23.2775 13.5858 23.3519 13.6779C23.5042 13.867 23.6526 14.0588 23.7999 14.2517C24.0083 14.5234 24.2182 14.7938 24.4285 15.064C24.5118 15.171 24.595 15.278 24.6783 15.385C24.7113 15.4275 24.7444 15.47 24.7774 15.5125C28.5458 20.3575 28.5458 20.3575 28.5954 20.4214C28.6282 20.4635 28.661 20.5056 28.6937 20.5477C28.781 20.6599 28.8682 20.7721 28.9554 20.8844C28.9737 20.908 28.992 20.9315 29.0108 20.9558C29.0461 21.0012 29.0813 21.0467 29.1166 21.0921C29.1324 21.1124 29.1481 21.1327 29.1643 21.1536C29.1783 21.1716 29.1922 21.1895 29.2066 21.2081C29.2378 21.2489 29.2378 21.2489 29.2683 21.2783C29.2702 19.3402 29.272 17.402 29.2731 15.4638C29.2731 15.4351 29.2731 15.4065 29.2731 15.3769C29.2735 14.7536 29.2738 14.1304 29.2741 13.5071C29.2742 13.2015 29.2744 12.8958 29.2745 12.5902C29.2745 12.5446 29.2745 12.5446 29.2745 12.498C29.275 11.5119 29.2759 10.5259 29.2769 9.53977C29.278 8.52656 29.2787 7.51334 29.2789 6.50012C29.279 6.35706 29.279 6.21399 29.279 6.07092C29.279 6.04276 29.279 6.01461 29.2791 5.98559C29.2792 5.53209 29.2797 5.07859 29.2804 4.62508C29.281 4.1693 29.2813 3.71352 29.2811 3.25774C29.2811 2.98686 29.2813 2.71598 29.282 2.4451C29.2824 2.26418 29.2824 2.08326 29.2821 1.90234C29.2819 1.79923 29.2819 1.69613 29.2824 1.59303C29.283 1.48191 29.2826 1.37081 29.2822 1.25969C29.2825 1.22775 29.2828 1.19581 29.2831 1.1629C29.2808 0.888315 29.2061 0.674348 29.0416 0.453339C29.0247 0.430512 29.0079 0.407685 28.9905 0.384166C28.8214 0.187153 28.5818 0.0849359 28.3333 0.0283391C28.3333 0.0189891 28.3333 0.00963906 28.3333 5.73187e-06Z" fill="#62F555"/>
</g>
<defs>
<clipPath id="clip0_25_112">
<rect width="34" height="34" fill="white"/>
</clipPath>
</defs>
</svg>
