<svg width="40" height="40" viewBox="0 0 40 40" fill="none" xmlns="http://www.w3.org/2000/svg">
<path d="M15.8116 26.25C15.8116 26.94 15.2524 27.5 14.5616 27.5C13.8708 27.5 13.3116 26.94 13.3116 26.25V14.5833C13.3116 14.0392 13.6641 13.5575 14.1824 13.3917C14.7033 13.2267 15.2674 13.4167 15.5816 13.8608L29.5624 33.6142C33.8474 30.5908 36.6666 25.6125 36.6666 20C36.6666 10.8333 29.1666 3.33334 19.9999 3.33334C10.8333 3.33334 3.33325 10.8333 3.33325 20C3.33325 29.1667 10.8333 36.6667 19.9999 36.6667C22.6599 36.6667 25.1716 36.0192 27.4083 34.8983L15.8116 18.5133V26.25ZM24.1449 13.75C24.1449 13.06 24.7041 12.5 25.3949 12.5C26.0858 12.5 26.6449 13.06 26.6449 13.75V25.2833L24.1449 21.7608V13.75Z" fill="#F1F1F1"/>
</svg>
