<svg width="50" height="50" viewBox="0 0 50 50" fill="none" xmlns="http://www.w3.org/2000/svg">
<path d="M44.62 13.13C44.39 12.92 44.1 12.8 43.79 12.8C43.77 12.8 43.74 12.81 43.71 12.81L13.85 14.73C13.22 14.77 12.72 15.31 12.72 15.94V44.69C12.72 45.03 12.86 45.34 13.1 45.57C13.35 45.8 13.67 45.92 14.01 45.9L43.87 43.97C44.51 43.93 45 43.4 45 42.76V14.02C45 13.68 44.87 13.36 44.62 13.13ZM38.11 20.92C37.51 21.11 37.32 21.12 37.32 21.12V38.36C36.3 38.91 35.46 39.17 34.58 39.17C33.51 39.17 32.9 38.93 32.08 37.67C30.34 34.98 24.67 25.86 24.67 25.86V37.31L26.9 37.78C26.9 37.78 26.84 39.08 24.89 39.23C23.18 39.36 19.45 39.55 19.45 39.55C19.45 39.08 19.55 38.43 20.29 38.24C20.64 38.15 21.69 37.87 21.69 37.87V22.42H19.45C19.45 21.39 19.75 20.59 20.83 20.51L26.62 20.18L34.35 32.1V21.49L32.11 21.3C32.11 20.37 33.01 19.8 33.78 19.72L38.82 19.44C38.82 20.09 38.79 20.7 38.11 20.92ZM4.97998 8.54L10.72 14.28V43.82L5.59998 37.66C5.18998 37.08 4.97998 36.41 4.97998 35.7V8.54ZM42.72 10.91L13.66 12.74C12.67 12.81 11.71 12.44 11.01 11.75L6.23998 6.97L33.43 5.08C34.24 5.01 35.05 5.25 35.71 5.74L42.72 10.91Z" fill="white"/>
</svg>
