<svg width="42" height="38" viewBox="0 0 42 38" fill="none" xmlns="http://www.w3.org/2000/svg">
<g clip-path="url(#clip0_25_43)">
<path d="M42 19.95C42.0023 19.6305 41.8326 19.3333 41.5526 19.1662H41.5477L41.5301 19.1567L26.9767 10.7777C26.9138 10.7364 26.8486 10.6987 26.7813 10.6647C26.2194 10.3827 25.5519 10.3827 24.99 10.6647C24.9227 10.6987 24.8574 10.7364 24.7946 10.7777L10.2412 19.1567L10.2236 19.1662C9.77879 19.4353 9.64243 20.0041 9.91903 20.4367C10.0005 20.5642 10.1128 20.6704 10.246 20.7461L24.7995 29.1251C24.8626 29.166 24.9278 29.2038 24.9949 29.2381C25.5568 29.5201 26.2243 29.5201 26.7862 29.2381C26.8533 29.2038 26.9185 29.166 26.9816 29.1251L41.5351 20.7461C41.8258 20.5812 42.0033 20.2773 42 19.95Z" fill="#0A2767"/>
<path d="M11.9378 14.3554H21.4884V22.8703H11.9378V14.3554ZM40.0465 5.69999V1.80499C40.0694 0.831151 39.2769 0.0233354 38.2757 0H13.4918C12.4905 0.0233354 11.698 0.831151 11.7209 1.80499V5.69999L26.3721 9.49998L40.0465 5.69999Z" fill="#0364B8"/>
<path d="M11.7209 5.69998H21.4884V14.25H11.7209V5.69998Z" fill="#0078D4"/>
<path d="M31.2557 5.69998H21.4883V14.25L31.2557 22.8H40.0464V14.25L31.2557 5.69998Z" fill="#28A8EA"/>
<path d="M21.4883 14.25H31.2557V22.8H21.4883V14.25Z" fill="#0078D4"/>
<path d="M21.4883 22.8H31.2557V31.35H21.4883V22.8Z" fill="#0364B8"/>
<path d="M11.9377 22.8703H21.4883V30.6109H11.9377V22.8703Z" fill="#14447D"/>
<path d="M31.2559 22.8H40.0465V31.35H31.2559V22.8Z" fill="#0078D4"/>
<path d="M41.5525 20.6938L41.534 20.7033L26.9805 28.6643C26.917 28.7023 26.8525 28.7384 26.7851 28.7707C26.5379 28.8852 26.2695 28.9498 25.9959 28.9607L25.2008 28.5085C25.1337 28.4757 25.0684 28.4392 25.0055 28.3993L10.2567 20.2122H10.2498L9.76733 19.95V36.0658C9.77486 37.141 10.6769 38.0068 11.7823 38H40.0161C40.0327 38 40.0474 37.9924 40.0649 37.9924C40.2984 37.9778 40.5286 37.9311 40.7486 37.8537C40.8437 37.8145 40.9355 37.7681 41.0231 37.715C41.0885 37.6789 41.2009 37.6 41.2009 37.6C41.7012 37.2399 41.9974 36.6712 41.9998 36.0658V19.95C41.9995 20.2582 41.8286 20.5424 41.5525 20.6938Z" fill="url(#paint0_linear_25_43)"/>
<path opacity="0.5" d="M41.2187 19.8863V20.8743L26.001 31.065L10.2461 20.2188C10.2461 20.2136 10.2417 20.2093 10.2363 20.2093L8.79077 19.3638V18.6513L9.38659 18.6418L10.6466 19.3448L10.6759 19.3543L10.7833 19.4208C10.7833 19.4208 25.5907 27.6383 25.6298 27.6573L26.1963 27.9803C26.2451 27.9613 26.294 27.9423 26.3526 27.9233C26.3819 27.9043 41.0526 19.8768 41.0526 19.8768L41.2187 19.8863Z" fill="#0A2767"/>
<path d="M41.5525 20.6938L41.5339 20.7043L26.9805 28.6653C26.917 28.7033 26.8525 28.7393 26.7851 28.7717C26.2199 29.0402 25.5589 29.0402 24.9937 28.7717C24.9268 28.7394 24.8616 28.7039 24.7984 28.6653L10.245 20.7043L10.2274 20.6938C9.9464 20.5457 9.77025 20.2608 9.76733 19.95V36.0658C9.77433 37.1408 10.676 38.0068 11.7813 38C11.7813 38 11.7813 38 11.7814 38H39.9858C41.0911 38.0068 41.9928 37.1409 41.9999 36.0659C41.9999 36.0659 41.9999 36.0658 41.9999 36.0658V19.95C41.9995 20.2582 41.8286 20.5424 41.5525 20.6938Z" fill="#1490DF"/>
<path opacity="0.1" d="M27.1926 28.5475L26.9748 28.6662C26.9117 28.7053 26.8464 28.7411 26.7794 28.7736C26.5395 28.8881 26.2785 28.9553 26.0117 28.9711L31.5489 35.34L41.2079 37.6038C41.4726 37.4094 41.6831 37.1536 41.8203 36.8599L27.1926 28.5475Z" fill="black"/>
<path opacity="0.05" d="M28.1791 28.0079L26.9748 28.6662C26.9117 28.7053 26.8464 28.7412 26.7794 28.7736C26.5395 28.8881 26.2785 28.9553 26.0117 28.9712L28.6059 35.928L41.2108 37.601C41.7074 37.2383 41.9997 36.6697 42 36.0657V35.8577L28.1791 28.0079Z" fill="black"/>
<path d="M11.8087 38H39.9829C40.4164 38.0021 40.8392 37.8689 41.1891 37.62L25.1999 28.5104C25.1327 28.4776 25.0674 28.4412 25.0045 28.4012L10.2557 20.2141H10.2489L9.76733 19.95V36.0107C9.76623 37.1083 10.6802 37.9989 11.8087 38V38Z" fill="#28A8EA"/>
<path opacity="0.1" d="M23.4417 9.34135V29.6048C23.44 30.3153 22.9958 30.9539 22.3185 31.2198C22.1087 31.3075 21.8827 31.3528 21.6543 31.3529H9.76733V8.55H11.7208V7.60001H21.6543C22.6411 7.60364 23.4396 8.38161 23.4417 9.34135Z" fill="black"/>
<path opacity="0.2" d="M22.465 10.2913V30.5548C22.4675 30.7843 22.4174 31.0115 22.3185 31.2198C22.0472 31.8701 21.3991 32.2967 20.6776 32.3H9.76733V8.55001H20.6776C20.961 8.54724 21.2403 8.616 21.4883 8.74952C22.087 9.04291 22.4648 9.63927 22.465 10.2913Z" fill="black"/>
<path opacity="0.2" d="M22.465 10.2913V28.6548C22.4602 29.6141 21.6639 30.3917 20.6776 30.4H9.76733V8.55001H20.6776C20.961 8.54724 21.2403 8.616 21.4883 8.74952C22.087 9.04291 22.4648 9.63927 22.465 10.2913Z" fill="black"/>
<path opacity="0.2" d="M21.4883 10.2913V28.6548C21.4872 29.6156 20.6886 30.3953 19.7008 30.4H9.76733V8.54999H19.7008C20.6885 8.5505 21.4888 9.32972 21.4882 10.2904C21.4883 10.2907 21.4883 10.291 21.4883 10.2913Z" fill="black"/>
<path d="M1.79036 8.54999H19.698C20.6868 8.54999 21.4883 9.32963 21.4883 10.2913V27.7086C21.4883 28.6703 20.6868 29.45 19.698 29.45H1.79036C0.801564 29.45 0 28.6703 0 27.7086V10.2913C0 9.32963 0.801587 8.54999 1.79036 8.54999Z" fill="url(#paint1_linear_25_43)"/>
<path d="M5.59577 15.8536C6.03704 14.9392 6.74928 14.1739 7.64108 13.6562C8.62869 13.1063 9.75317 12.8321 10.8907 12.8639C11.945 12.8417 12.9854 13.1016 13.8981 13.6154C14.7563 14.1131 15.4474 14.8425 15.8877 15.7149C16.3672 16.6762 16.6062 17.7341 16.5851 18.8024C16.6084 19.9188 16.3625 21.025 15.8672 22.0324C15.4165 22.9359 14.7034 23.6913 13.8161 24.205C12.8681 24.7345 11.7892 25.0013 10.6963 24.9764C9.61951 25.0017 8.55623 24.7388 7.62253 24.2164C6.75692 23.718 6.05708 22.9878 5.60653 22.1131C5.1242 21.1657 4.8824 20.1197 4.90132 19.0626C4.88123 17.9557 5.11863 16.8587 5.59577 15.8536ZM7.77586 21.0121C8.01113 21.5901 8.4101 22.0915 8.92646 22.458C9.45241 22.8155 10.0822 23 10.7237 22.9843C11.4068 23.0105 12.0802 22.8198 12.642 22.4409C13.1518 22.0755 13.5403 21.5728 13.7594 20.995C14.0043 20.3496 14.1251 19.666 14.1159 18.9781C14.1235 18.2837 14.0099 17.5931 13.7799 16.9356C13.5768 16.342 13.2008 15.8186 12.6977 15.4289C12.1499 15.0321 11.4784 14.8308 10.7959 14.8589C10.1406 14.8424 9.49668 15.0283 8.95674 15.39C8.43164 15.758 8.0251 16.2638 7.78465 16.8482C7.25124 18.1879 7.24847 19.6724 7.77683 21.014L7.77586 21.0121Z" fill="white"/>
<path d="M31.2559 5.69998H40.0465V14.25H31.2559V5.69998Z" fill="#50D9FF"/>
</g>
<defs>
<linearGradient id="paint0_linear_25_43" x1="25.8836" y1="19.95" x2="25.8836" y2="38" gradientUnits="userSpaceOnUse">
<stop stop-color="#35B8F1"/>
<stop offset="1" stop-color="#28A8EA"/>
</linearGradient>
<linearGradient id="paint1_linear_25_43" x1="3.73296" y1="7.18934" x2="17.1796" y2="31.134" gradientUnits="userSpaceOnUse">
<stop stop-color="#1784D9"/>
<stop offset="0.5" stop-color="#107AD5"/>
<stop offset="1" stop-color="#0A63C9"/>
</linearGradient>
<clipPath id="clip0_25_43">
<rect width="42" height="38" fill="white"/>
</clipPath>
</defs>
</svg>
