<svg width="57" height="57" viewBox="0 0 57 57" fill="none" xmlns="http://www.w3.org/2000/svg">
<ellipse cx="28.5" cy="28.4999" rx="28.5" ry="28.4999" fill="white"/>
<path d="M42.8231 3.81739C38.4623 1.27218 33.6994 -0.000183105 28.5355 -0.000183105C23.371 -0.000183105 18.6083 1.27218 14.2474 3.81739C9.88656 6.3627 6.43347 9.81579 3.88874 14.1761C1.34353 18.5374 0.071167 23.3001 0.071167 28.4642C0.071167 34.2213 1.6395 39.4471 4.77794 44.1412C7.91579 48.8367 12.0294 52.3078 17.12 54.5557C17.0207 51.9119 17.1814 49.7257 17.6018 47.9962L21.2709 32.5038C20.6531 31.2934 20.3444 29.7864 20.3444 27.9822C20.3444 25.8821 20.8756 24.1273 21.938 22.7196C22.9998 21.3107 24.2974 20.6062 25.8296 20.6062C27.0646 20.6062 28.0163 21.0134 28.6836 21.8298C29.3507 22.6449 29.6846 23.6706 29.6846 24.9057C29.6846 25.6721 29.542 26.6052 29.2586 27.7042C28.974 28.8039 28.6035 30.0762 28.1469 31.5218C27.6897 32.9669 27.3625 34.1219 27.1645 34.987C26.818 36.4939 27.1026 37.7848 28.0169 38.8599C28.9306 39.9349 30.1417 40.472 31.6492 40.472C34.2932 40.472 36.4614 39.0023 38.1541 36.0619C39.8465 33.1214 40.6928 29.5511 40.6928 25.3501C40.6928 22.1137 39.6491 19.4817 37.5611 17.4557C35.4731 15.4301 32.5631 14.4165 28.8328 14.4165C24.6565 14.4165 21.2775 15.7575 18.6961 18.4375C16.1141 21.1187 14.8231 24.3251 14.8231 28.0549C14.8231 30.2788 15.4535 32.1449 16.7132 33.652C17.1331 34.1464 17.2691 34.6771 17.121 35.2449C17.0711 35.3936 16.9725 35.764 16.8245 36.3566C16.6765 36.9492 16.5773 37.3331 16.5279 37.5056C16.33 38.2968 15.8608 38.544 15.119 38.2468C13.2163 37.4562 11.7706 36.0853 10.7828 34.1331C9.79445 32.1815 9.30051 29.9208 9.30051 27.351C9.30051 25.6954 9.56581 24.0398 10.097 22.3843C10.6282 20.7288 11.4554 19.1292 12.5804 17.5842C13.7041 16.0412 15.0511 14.675 16.6206 13.4893C18.1895 12.3029 20.0984 11.3525 22.347 10.6347C24.5952 9.91881 27.0171 9.56032 29.6116 9.56032C33.1201 9.56032 36.2707 10.3387 39.0625 11.895C41.8543 13.4519 43.9858 15.466 45.4561 17.9366C46.9257 20.4073 47.6615 23.0506 47.6615 25.8684C47.6615 29.5747 47.0185 32.9106 45.7341 35.8758C44.4492 38.841 42.633 41.1696 40.2855 42.862C37.9375 44.5542 35.2689 45.4006 32.2797 45.4006C30.7722 45.4006 29.3638 45.0487 28.0543 44.3441C26.744 43.6397 25.8423 42.806 25.3483 41.8422C24.2366 46.215 23.5695 48.823 23.3469 49.6622C22.877 51.417 21.9133 53.4424 20.4557 55.7405C23.0996 56.5311 25.7928 56.9262 28.5355 56.9262C33.6995 56.9262 38.4623 55.6539 42.8231 53.1093C47.1838 50.5639 50.6369 47.1109 53.1823 42.7494C55.727 38.3885 57 33.6264 57 28.4617C57 23.2972 55.727 18.5352 53.1823 14.1737C50.6375 9.81579 47.1838 6.3627 42.8231 3.81739Z" fill="#E00024"/>
</svg>
