<svg width="57" height="57" viewBox="0 0 57 57" fill="none" xmlns="http://www.w3.org/2000/svg">
<path d="M28.5 57C44.2401 57 57 44.2401 57 28.5C57 12.7599 44.2401 0 28.5 0C12.7599 0 0 12.7599 0 28.5C0 44.2401 12.7599 57 28.5 57Z" fill="#E60023"/>
<path d="M29.1326 10.568C16.8315 10.568 10.3007 18.8253 10.3007 27.8149C10.3007 31.9956 12.5258 37.1991 16.0862 38.8564C16.6254 39.1075 16.9149 38.9989 17.0387 38.476C17.134 38.0793 17.6141 36.1435 17.8301 35.2435C17.8992 34.9563 17.8652 34.7097 17.6328 34.4268C16.4544 32.9975 15.5118 30.3711 15.5118 27.9223C15.5118 21.6358 20.2712 15.5533 28.3795 15.5533C35.3806 15.5533 40.2826 20.3249 40.2826 27.1484C40.2826 34.8576 36.3891 40.1992 31.3238 40.1992C28.5264 40.1992 26.4317 37.8852 27.1036 35.0473C27.9093 31.6601 29.4647 28.0056 29.4647 25.559C29.4647 23.3711 28.2918 21.5449 25.8595 21.5449C22.9995 21.5449 20.7031 24.5023 20.7031 28.466C20.7031 30.9883 21.5559 32.696 21.5559 32.696C21.5559 32.696 18.7312 44.6397 18.2137 46.8627C17.6409 49.317 17.8642 52.7645 18.1121 55.0185C18.7549 55.2706 19.398 55.5226 20.0626 55.7283C21.2266 53.8362 22.9624 50.7327 23.6058 48.2581C23.9532 46.9241 25.3826 41.4828 25.3826 41.4828C26.311 43.2553 29.0251 44.7559 31.9135 44.7559C40.5084 44.7559 46.7028 36.8515 46.7028 27.0289C46.7028 17.6118 39.0198 10.568 29.1326 10.568Z" fill="white"/>
</svg>
