<svg width="43" height="43" viewBox="0 0 43 43" fill="none" xmlns="http://www.w3.org/2000/svg">
<g clip-path="url(#clip0_25_67)">
<path d="M21.5 43C33.3741 43 43 33.3741 43 21.5C43 9.62589 33.3741 0 21.5 0C9.62589 0 0 9.62589 0 21.5C0 33.3741 9.62589 43 21.5 43Z" fill="#E60023"/>
<path d="M21.9773 7.97235C12.6975 7.97235 7.77075 14.2015 7.77075 20.9832C7.77075 24.137 9.44934 28.0625 12.1353 29.3127C12.542 29.5021 12.7604 29.4202 12.8538 29.0258C12.9257 28.7265 13.2879 27.2661 13.4508 26.5872C13.503 26.3705 13.4773 26.1845 13.302 25.9711C12.413 24.8928 11.7019 22.9115 11.7019 21.0642C11.7019 16.3217 15.2924 11.7332 21.4091 11.7332C26.6907 11.7332 30.3887 15.3328 30.3887 20.4804C30.3887 26.2961 27.4515 30.3257 23.6303 30.3257C21.52 30.3257 19.9398 28.5801 20.4466 26.4392C21.0544 23.8839 22.2278 21.127 22.2278 19.2814C22.2278 17.6308 21.343 16.2532 19.5081 16.2532C17.3505 16.2532 15.6182 18.4842 15.6182 21.4743C15.6182 23.3771 16.2615 24.6654 16.2615 24.6654C16.2615 24.6654 14.1306 33.6756 13.7402 35.3526C13.3081 37.2041 13.4766 39.8048 13.6636 41.5052C14.1485 41.6954 14.6336 41.8855 15.135 42.0406C16.0131 40.6133 17.3226 38.272 17.8079 36.4052C18.07 35.3989 19.1483 31.294 19.1483 31.294C19.8487 32.6312 21.8962 33.7632 24.0751 33.7632C30.559 33.7632 35.232 27.8003 35.232 20.3902C35.232 13.2861 29.436 7.97235 21.9773 7.97235Z" fill="white"/>
</g>
<defs>
<clipPath id="clip0_25_67">
<rect width="43" height="43" fill="white"/>
</clipPath>
</defs>
</svg>
