<svg width="44" height="44" viewBox="0 0 44 44" fill="none" xmlns="http://www.w3.org/2000/svg">
<g clip-path="url(#clip0_25_70)">
<path d="M15.6444 0C18.113 2.76492e-07 20.1142 2.00118 20.1143 4.4698V15.6444C20.1143 18.113 18.113 20.1143 15.6444 20.1143H4.4698C2.00118 20.1142 2.76456e-07 18.113 0 15.6444V4.4698C1.17508e-05 2.00119 2.00119 1.17493e-05 4.4698 0H15.6444ZM4.4698 15.6444H15.6444V4.4698H4.4698V15.6444Z" fill="white"/>
<path d="M15.6444 23.8857C18.113 23.8857 20.1142 25.8869 20.1143 28.3555V39.5301C20.1143 41.9988 18.113 44 15.6444 44H4.4698C2.00118 44 2.76456e-07 41.9988 0 39.5301V28.3555C1.17508e-05 25.8869 2.00119 23.8858 4.4698 23.8857H15.6444ZM4.4698 39.5301H15.6444V28.3555H4.4698V39.5301Z" fill="white"/>
<path d="M39.5302 0C41.9988 2.76492e-07 44 2.00118 44 4.4698V15.6444C44 18.113 41.9988 20.1143 39.5302 20.1143H28.3555C25.8869 20.1142 23.8857 18.113 23.8857 15.6444V4.4698C23.8857 2.00119 25.8869 1.17493e-05 28.3555 0H39.5302ZM28.3555 15.6444H39.5302V4.4698H28.3555V15.6444Z" fill="white"/>
<path d="M29.6476 23.8857H25.0381C24.4017 23.8857 23.8857 24.4016 23.8857 25.0381V29.6476C23.8857 30.2841 24.4017 30.8 25.0381 30.8H29.6476C30.2841 30.8 30.8 30.2841 30.8 29.6476V25.0381C30.8 24.4016 30.2841 23.8857 29.6476 23.8857Z" fill="white"/>
<path d="M36.0382 30.8H31.8477C31.2691 30.8 30.8 31.3159 30.8 31.9524V36.5619C30.8 37.1983 31.2691 37.7143 31.8477 37.7143H36.0382C36.6168 37.7143 37.0858 37.1983 37.0858 36.5619V31.9524C37.0858 31.3159 36.6168 30.8 36.0382 30.8Z" fill="white"/>
<path d="M42.8476 23.8857H38.2381C37.6016 23.8857 37.0857 24.4016 37.0857 25.0381V29.6476C37.0857 30.2841 37.6016 30.8 38.2381 30.8H42.8476C43.4841 30.8 44 30.2841 44 29.6476V25.0381C44 24.4016 43.4841 23.8857 42.8476 23.8857Z" fill="white"/>
<path d="M42.8476 37.7143H38.2381C37.6016 37.7143 37.0857 38.1833 37.0857 38.7618V42.9524C37.0857 43.531 37.6016 44 38.2381 44H42.8476C43.4841 44 44 43.531 44 42.9524V38.7618C44 38.1833 43.4841 37.7143 42.8476 37.7143Z" fill="white"/>
<path d="M29.6476 37.7143H25.0381C24.4017 37.7143 23.8857 38.1833 23.8857 38.7618V42.9524C23.8857 43.531 24.4017 44 25.0381 44H29.6476C30.2841 44 30.8 43.531 30.8 42.9524V38.7618C30.8 38.1833 30.2841 37.7143 29.6476 37.7143Z" fill="white"/>
</g>
<defs>
<clipPath id="clip0_25_70">
<rect width="44" height="44" fill="white"/>
</clipPath>
</defs>
</svg>
