<svg width="62" height="62" viewBox="0 0 62 62" fill="none" xmlns="http://www.w3.org/2000/svg">
<path d="M22.0444 0C25.5229 3.89602e-07 28.3428 2.81985 28.3429 6.29835V22.0444C28.3429 25.5229 25.5229 28.3429 22.0444 28.3429H6.29835C2.81985 28.3428 3.89551e-07 25.5229 0 22.0444V6.29835C1.6558e-05 2.81986 2.81986 1.65558e-05 6.29835 0H22.0444ZM6.29835 22.0444H22.0444V6.29835H6.29835V22.0444Z" fill="white"/>
<path d="M22.0444 33.6571C25.5229 33.6571 28.3428 36.477 28.3429 39.9555V55.7015C28.3429 59.1801 25.5229 62 22.0444 62H6.29835C2.81985 62 3.89551e-07 59.1801 0 55.7015V39.9555C1.6558e-05 36.477 2.81986 33.6572 6.29835 33.6571H22.0444ZM6.29835 55.7015H22.0444V39.9555H6.29835V55.7015Z" fill="white"/>
<path d="M55.7016 0C59.1801 3.89602e-07 62 2.81985 62 6.29835V22.0444C62 25.5229 59.1801 28.3429 55.7016 28.3429H39.9555C36.477 28.3428 33.6572 25.5229 33.6572 22.0444V6.29835C33.6572 2.81986 36.477 1.65558e-05 39.9555 0H55.7016ZM39.9555 22.0444H55.7016V6.29835H39.9555V22.0444Z" fill="white"/>
<path d="M41.7762 33.6571H35.281C34.3842 33.6571 33.6572 34.3841 33.6572 35.2809V41.7762C33.6572 42.673 34.3842 43.4 35.281 43.4H41.7762C42.673 43.4 43.4 42.673 43.4 41.7762V35.2809C43.4 34.3841 42.673 33.6571 41.7762 33.6571Z" fill="white"/>
<path d="M50.781 43.4H44.8762C44.0609 43.4 43.4 44.127 43.4 45.0238V51.519C43.4 52.4158 44.0609 53.1429 44.8762 53.1429H50.781C51.5963 53.1429 52.2572 52.4158 52.2572 51.519V45.0238C52.2572 44.127 51.5963 43.4 50.781 43.4Z" fill="white"/>
<path d="M60.3762 33.6571H53.881C52.9841 33.6571 52.2571 34.3841 52.2571 35.2809V41.7762C52.2571 42.673 52.9841 43.4 53.881 43.4H60.3762C61.273 43.4 62 42.673 62 41.7762V35.2809C62 34.3841 61.273 33.6571 60.3762 33.6571Z" fill="white"/>
<path d="M60.3762 53.1429H53.881C52.9841 53.1429 52.2571 53.8038 52.2571 54.619V60.5238C52.2571 61.3391 52.9841 62 53.881 62H60.3762C61.273 62 62 61.3391 62 60.5238V54.619C62 53.8038 61.273 53.1429 60.3762 53.1429Z" fill="white"/>
<path d="M41.7762 53.1429H35.281C34.3842 53.1429 33.6572 53.8038 33.6572 54.619V60.5238C33.6572 61.3391 34.3842 62 35.281 62H41.7762C42.673 62 43.4 61.3391 43.4 60.5238V54.619C43.4 53.8038 42.673 53.1429 41.7762 53.1429Z" fill="white"/>
</svg>
