<svg width="36" height="36" viewBox="0 0 36 36" fill="none" xmlns="http://www.w3.org/2000/svg">
<path d="M30.5 0H5.5C2.467 0 0 2.468 0 5.5V30.5C0 33.532 2.467 36 5.5 36H30.5C33.533 36 36 33.532 36 30.5V5.5C36 2.468 33.533 0 30.5 0ZM17.5 29C15.291 29 13.066 28.43 11.331 27.83C11.13 27.761 11 27.571 11 27.358V22.697C11 22.518 11.18 22.395 11.344 22.466C12.511 22.968 14.612 23.76 16.677 23.977C17.624 24.076 18.553 23.972 19.076 23.43C19.258 23.241 19.499 22.856 19.499 22.273C19.499 21.826 19.412 20.779 16.965 20.059C14.764 19.442 10.5 18.022 10.5 13.5C10.5 10.502 12.595 7 18.5 7C20.709 7 22.934 7.57 24.669 8.17C24.87 8.239 25 8.429 25 8.642V13.294C25 13.474 24.819 13.596 24.655 13.524C23.493 13.016 21.399 12.22 19.334 12.037C18.4 11.918 17.384 12.008 16.888 12.496C16.727 12.654 16.5 12.973 16.5 13.439C16.5 13.822 16.512 14.677 18.989 15.43C23.31 16.691 25.5 18.983 25.5 22.249C25.5 25.364 23.405 29 17.5 29Z" fill="#675DFF"/>
</svg>
