<svg width="42" height="42" viewBox="0 0 42 42" fill="none" xmlns="http://www.w3.org/2000/svg">
<path d="M39.5963 24.7508C41.8586 22.4885 41.8585 18.8073 39.5962 16.5449C38.5003 15.4489 37.0431 14.8454 35.4932 14.8454C35.1252 14.8454 34.7629 14.879 34.4095 14.9451C35.9496 13.8917 36.9476 12.1203 36.9476 10.1506C36.9476 6.95108 34.3446 4.34811 31.1451 4.34811C29.1715 4.34811 27.397 5.35011 26.3444 6.89534C26.6927 5.05836 26.1464 3.09505 24.7508 1.69951C23.655 0.603569 22.1978 0 20.6479 0C19.098 0 17.6408 0.603569 16.5449 1.69951C15.1493 3.09505 14.6031 5.05844 14.9514 6.89541C13.8987 5.35018 12.1242 4.34811 10.1506 4.34811C6.95108 4.34811 4.34811 6.95108 4.34811 10.1506C4.34811 12.1204 5.34603 13.8917 6.8861 14.9451C6.53272 14.879 6.17053 14.8454 5.80245 14.8454C4.25256 14.8454 2.79545 15.449 1.69951 16.5449C0.603569 17.6409 0 19.0981 0 20.6479C0 22.1978 0.603569 23.6549 1.69951 24.7509C2.79545 25.8468 4.25263 26.4503 5.80245 26.4503C6.17046 26.4503 6.53265 26.4168 6.8861 26.3506C5.34603 27.4041 4.34811 29.1755 4.34811 31.1452C4.34811 34.3447 6.95108 36.9476 10.1506 36.9476C12.1242 36.9476 13.8988 35.9456 14.9514 34.4004C14.6031 36.2374 15.1494 38.2008 16.5449 39.5963C17.6409 40.6922 19.0981 41.2958 20.6479 41.2958C22.1978 41.2958 23.655 40.6922 24.7508 39.5963C26.1464 38.2007 26.6926 36.2373 26.3443 34.4003C27.397 35.9455 29.1715 36.9476 31.1451 36.9476C34.3446 36.9476 36.9476 34.3447 36.9476 31.1452C36.9476 29.1755 35.9496 27.4041 34.4096 26.3506C34.763 26.4168 35.1252 26.4503 35.4932 26.4503C37.0431 26.4503 38.5003 25.8468 39.5963 24.7508Z" fill="black"/>
<path d="M37.8455 18.2949C36.5458 16.9954 34.4387 16.9954 33.1391 18.2949H26.328L31.1442 13.4788C32.9821 13.4788 34.4721 11.9888 34.4721 10.1508C34.4721 8.31291 32.9821 6.82291 31.1442 6.82291C29.3062 6.82291 27.8163 8.31291 27.8163 10.1508L23.0001 14.9671V8.15594C24.2997 6.85631 24.2997 4.74921 23 3.44958C21.7004 2.14995 19.5933 2.14995 18.2937 3.44958C16.994 4.74921 16.994 6.85631 18.2937 8.15594V14.9671L13.4775 10.1508C13.4775 8.31291 11.9876 6.82291 10.1496 6.82291C8.31164 6.82291 6.82164 8.31291 6.82164 10.1508C6.82164 11.9888 8.31164 13.4788 10.1496 13.4788L14.9657 18.2949H8.15467C6.85497 16.9953 4.74786 16.9954 3.44823 18.295C2.1486 19.5946 2.1486 21.7017 3.44823 23.0014C4.74786 24.301 6.85504 24.301 8.15467 23.0014H14.9657L10.1496 27.8176C8.31164 27.8176 6.82164 29.3075 6.82164 31.1455C6.82164 32.9834 8.31164 34.4734 10.1496 34.4734C11.9876 34.4734 13.4775 32.9834 13.4775 31.1455L18.2937 26.3293V33.1404C16.994 34.44 16.994 36.5472 18.2937 37.8468C19.5933 39.1464 21.7005 39.1464 23.0001 37.8468C24.2997 36.5472 24.2997 34.44 23.0001 33.1404V26.3293L27.8163 31.1455C27.8163 32.9834 29.3062 34.4734 31.1442 34.4734C32.9821 34.4734 34.4721 32.9834 34.4721 31.1455C34.4721 29.3075 32.9821 27.8176 31.1442 27.8176L26.328 23.0014H33.1391C34.4387 24.301 36.5458 24.301 37.8455 23.0014C39.1451 21.7017 39.1451 19.5946 37.8455 18.2949Z" fill="#FFB13B"/>
</svg>
