<svg width="64" height="64" viewBox="0 0 64 64" fill="none" xmlns="http://www.w3.org/2000/svg">
<path d="M61.3703 38.3615C64.8766 34.8551 64.8765 29.1495 61.3702 25.643C59.6717 23.9444 57.4132 23.0091 55.011 23.0091C54.4406 23.0091 53.8791 23.0611 53.3313 23.1636C55.7183 21.5309 57.2651 18.7853 57.2651 15.7325C57.2651 10.7736 53.2307 6.73926 48.2719 6.73926C45.2129 6.73926 42.4627 8.29225 40.8312 10.6872C41.371 7.84008 40.5243 4.79715 38.3613 2.6342C36.6628 0.935594 34.4043 0.00012207 32.0022 0.00012207C29.6 0.00012207 27.3415 0.935594 25.643 2.6342C23.4799 4.79715 22.6334 7.84019 23.1732 10.6873C21.5417 8.29237 18.7913 6.73926 15.7324 6.73926C10.7735 6.73926 6.73914 10.7736 6.73914 15.7325C6.73914 18.7855 8.28581 21.5309 10.6728 23.1635C10.1251 23.0611 9.56371 23.0091 8.99323 23.0091C6.59105 23.0091 4.33267 23.9445 2.63407 25.6431C0.935471 27.3417 0 29.6002 0 32.0023C0 34.4045 0.935471 36.6628 2.63407 38.3616C4.33267 40.06 6.59116 40.9955 8.99323 40.9955C9.5636 40.9955 10.125 40.9435 10.6728 40.841C8.28581 42.4737 6.73914 45.2192 6.73914 48.2721C6.73914 53.231 10.7735 57.2652 15.7324 57.2652C18.7913 57.2652 21.5418 55.7122 23.1732 53.3173C22.6334 56.1645 23.4801 59.2076 25.643 61.3705C27.3416 63.069 29.6001 64.0045 32.0022 64.0045C34.4043 64.0045 36.6628 63.069 38.3613 61.3704C40.5243 59.2074 41.3709 56.1643 40.8311 53.3172C42.4626 55.7121 45.2129 57.2652 48.2719 57.2652C53.2307 57.2652 57.2651 53.231 57.2651 48.2721C57.2651 45.2192 55.7183 42.4737 53.3315 40.841C53.8792 40.9435 54.4406 40.9955 55.011 40.9955C57.4132 40.9955 59.6717 40.0601 61.3703 38.3615Z" fill="#666666"/>
<path d="M58.6566 28.3552C56.6423 26.341 53.3765 26.341 51.3622 28.3552H40.8056L48.2704 20.8906C51.1189 20.8906 53.4282 18.5813 53.4282 15.7326C53.4282 12.884 51.1189 10.5747 48.2704 10.5747C45.4216 10.5747 43.1124 12.884 43.1124 15.7326L35.6478 23.1973V12.6408C37.662 10.6265 37.662 7.36065 35.6477 5.34636C33.6334 3.33206 30.3676 3.33206 28.3533 5.34636C26.339 7.36065 26.339 10.6265 28.3533 12.6408V23.1973L20.8887 15.7326C20.8887 12.884 18.5794 10.5747 15.7307 10.5747C12.8821 10.5747 10.5728 12.884 10.5728 15.7326C10.5728 18.5813 12.8821 20.8906 15.7307 20.8906L23.1953 28.3552H12.6389C10.6244 26.3409 7.35864 26.341 5.34434 28.3553C3.33004 30.3696 3.33004 33.6354 5.34434 35.6497C7.35864 37.664 10.6246 37.664 12.6389 35.6497H23.1953L15.7307 43.1143C12.8821 43.1143 10.5728 45.4235 10.5728 48.2722C10.5728 51.1208 12.8821 53.4302 15.7307 53.4302C18.5794 53.4302 20.8887 51.1208 20.8887 48.2722L28.3533 40.8076V51.3641C26.339 53.3784 26.339 56.6443 28.3533 58.6586C30.3676 60.6729 33.6335 60.6729 35.6478 58.6586C37.662 56.6443 37.662 53.3784 35.6478 51.3641V40.8076L43.1124 48.2722C43.1124 51.1208 45.4216 53.4302 48.2704 53.4302C51.1189 53.4302 53.4282 51.1208 53.4282 48.2722C53.4282 45.4235 51.1189 43.1143 48.2704 43.1143L40.8056 35.6497H51.3622C53.3765 37.664 56.6423 37.664 58.6566 35.6497C60.6709 33.6354 60.6709 30.3695 58.6566 28.3552Z" fill="#FFB13B"/>
</svg>
