<svg width="42" height="42" viewBox="0 0 42 42" fill="none" xmlns="http://www.w3.org/2000/svg">
<g clip-path="url(#clip0_25_81)">
<path d="M40.2743 25.1747C42.5753 22.8736 42.5752 19.1293 40.2742 16.8281C39.1596 15.7134 37.6774 15.0996 36.101 15.0996C35.7266 15.0996 35.3582 15.1338 34.9987 15.201C36.5651 14.1296 37.5802 12.3278 37.5802 10.3244C37.5802 7.0701 34.9326 4.42256 31.6784 4.42256C29.671 4.42256 27.8661 5.44171 26.7955 7.0134C27.1497 5.14497 26.5941 3.14805 25.1746 1.72861C24.06 0.613904 22.5778 0 21.0014 0C19.425 0 17.9429 0.613904 16.8282 1.72861C15.4087 3.14805 14.8532 5.14504 15.2074 7.01346C14.1367 5.44179 12.3318 4.42256 10.3244 4.42256C7.07011 4.42256 4.42256 7.0701 4.42256 10.3244C4.42256 12.3279 5.43756 14.1296 7.00403 15.201C6.6446 15.1338 6.27618 15.0996 5.90181 15.0996C4.32538 15.0996 2.84331 15.7135 1.72861 16.8282C0.613903 17.9429 0 19.4251 0 21.0014C0 22.5779 0.613903 24.0599 1.72861 25.1747C2.84331 26.2893 4.32545 26.9032 5.90181 26.9032C6.27611 26.9032 6.64453 26.8691 7.00403 26.8018C5.43756 27.8733 4.42256 29.675 4.42256 31.6785C4.42256 34.9328 7.07011 37.5802 10.3244 37.5802C12.3318 37.5802 14.1368 36.5611 15.2074 34.9894C14.8532 36.8579 15.4088 38.8549 16.8282 40.2743C17.9429 41.389 19.4251 42.0029 21.0014 42.0029C22.5778 42.0029 24.06 41.389 25.1746 40.2742C26.5941 38.8548 27.1497 36.8577 26.7954 34.9893C27.8661 36.561 29.671 37.5802 31.6784 37.5802C34.9326 37.5802 37.5802 34.9328 37.5802 31.6785C37.5802 29.675 36.5651 27.8733 34.9988 26.8018C35.3582 26.8691 35.7266 26.9032 36.101 26.9032C37.6774 26.9032 39.1596 26.2894 40.2743 25.1747Z" fill="#666666"/>
<path d="M38.4935 18.6081C37.1716 17.2863 35.0284 17.2863 33.7065 18.6081H26.7787L31.6775 13.7094C33.5468 13.7094 35.0623 12.194 35.0623 10.3245C35.0623 8.45511 33.5468 6.93963 31.6775 6.93963C29.808 6.93963 28.2926 8.45511 28.2926 10.3245L23.3939 15.2232V8.29551C24.7157 6.97363 24.7157 4.83041 23.3939 3.50853C22.072 2.18665 19.9288 2.18665 18.6069 3.50853C17.285 4.83041 17.285 6.97363 18.6069 8.29551V15.2232L13.7083 10.3245C13.7083 8.45511 12.1928 6.93963 10.3233 6.93963C8.45394 6.93963 6.93846 8.45511 6.93846 10.3245C6.93846 12.194 8.45394 13.7094 10.3233 13.7094L15.222 18.6081H8.29434C6.97232 17.2862 4.82917 17.2863 3.50728 18.6082C2.1854 19.93 2.1854 22.0732 3.50728 23.3951C4.82917 24.717 6.97245 24.717 8.29434 23.3951H15.222L10.3233 28.2937C8.45394 28.2937 6.93846 29.8092 6.93846 31.6786C6.93846 33.548 8.45394 35.0635 10.3233 35.0635C12.1928 35.0635 13.7083 33.548 13.7083 31.6786L18.6069 26.78V33.7077C17.285 35.0296 17.285 37.1728 18.6069 38.4947C19.9288 39.8166 22.072 39.8166 23.3939 38.4947C24.7157 37.1728 24.7157 35.0296 23.3939 33.7077V26.78L28.2926 31.6786C28.2926 33.548 29.808 35.0635 31.6775 35.0635C33.5468 35.0635 35.0623 33.548 35.0623 31.6786C35.0623 29.8092 33.5468 28.2937 31.6775 28.2937L26.7787 23.3951H33.7065C35.0284 24.717 37.1716 24.717 38.4935 23.3951C39.8153 22.0732 39.8153 19.93 38.4935 18.6081Z" fill="#FFB13B"/>
</g>
<defs>
<clipPath id="clip0_25_81">
<rect width="42" height="42" fill="white"/>
</clipPath>
</defs>
</svg>
