<svg width="50" height="37" viewBox="0 0 50 37" fill="none" xmlns="http://www.w3.org/2000/svg">
<path d="M47.8049 30.71C47.3171 33.3 45.2439 35.2733 42.6829 35.6433C38.6585 36.26 31.9512 37 24.3902 37C16.9512 37 10.2439 36.26 6.09756 35.6433C3.53659 35.2733 1.46341 33.3 0.97561 30.71C0.487805 27.8733 0 23.68 0 18.5C0 13.32 0.487805 9.12667 0.97561 6.29C1.46341 3.7 3.53659 1.72667 6.09756 1.35667C10.122 0.74 16.8293 0 24.3902 0C31.9512 0 38.5366 0.74 42.6829 1.35667C45.2439 1.72667 47.3171 3.7 47.8049 6.29C48.2927 9.12667 48.9024 13.32 48.9024 18.5C48.7805 23.68 48.2927 27.8733 47.8049 30.71Z" fill="#FF3D00"/>
<path d="M19.5122 27.1333V9.86667L34.1464 18.5L19.5122 27.1333Z" fill="white"/>
</svg>
