<svg width="192" height="192" viewBox="0 0 192 192" fill="none" xmlns="http://www.w3.org/2000/svg">
<rect width="192" height="192" rx="96" fill="white"/>
<circle cx="96" cy="96" r="55" fill="#E2FF04"/>
<path d="M109.208 102.506L109.237 102.461H66.8493C66.2445 102.461 65.676 102.785 65.3736 103.312L56.9992 117.818L54.39 122.337C53.9174 122.612 53.3687 122.929 52.8962 123.204H41.2969C39.9914 123.204 39.1694 121.787 39.8321 120.653L41.4671 117.818L50.325 102.461L69.922 68.5235C70.5829 67.3882 72.218 67.3882 72.8716 68.5235L79.1674 79.4275L88.0343 94.7821V94.7839L90.227 98.5809C90.5294 99.106 91.0871 99.4301 91.7009 99.4301H108.442L102.29 88.7579L102.062 88.3741L96.9012 79.4275L91.9472 70.8412L90.3682 68.1125L88.0343 64.0729V64.0693L81.9938 53.6071C81.6915 53.082 81.1229 52.7561 80.5181 52.7561H62.2737C61.6689 52.7561 61.1022 53.0802 60.7998 53.6071L32.5912 102.461L23.7333 117.818L20.6225 123.204L13.2295 136.009C12.5777 137.143 13.3907 138.561 14.7052 138.561H61.7721C62.3878 138.561 62.9454 138.237 63.2478 137.712L71.6222 123.204L74.2423 118.669C74.5447 118.142 75.1114 117.818 75.7162 117.818H118.086L118.048 117.798L109.208 102.506Z" fill="#17191F"/>
<path d="M165.05 102.461H129.959C128.644 102.461 127.822 101.04 128.485 99.9045L146.947 68.1126L154.367 55.3418C155.03 54.2083 154.206 52.7888 152.902 52.7851L140.651 52.7562L138.118 52.7507L138.107 52.7562H84.7913L93.6582 68.1126H126.234C127.549 68.1126 128.371 69.534 127.71 70.6693L111.28 98.9449L122.104 117.818H170.371C170.976 117.818 171.534 117.495 171.836 116.972L178.766 105.047C179.428 103.915 178.605 102.494 177.301 102.49L165.05 102.461Z" fill="#17191F"/>
</svg>
